<?xml version="1.0" encoding="UTF-8"?>
<!DOCTYPE svg PUBLIC "-//W3C//DTD SVG 1.1//EN" "http://www.w3.org/Graphics/SVG/1.1/DTD/svg11.dtd">
<!-- Creator: CorelDRAW -->
<svg xmlns="http://www.w3.org/2000/svg" xml:space="preserve" width="11.6929in" height="8.26772in" style="shape-rendering:geometricPrecision; text-rendering:geometricPrecision; image-rendering:optimizeQuality; fill-rule:evenodd; clip-rule:evenodd"
viewBox="0 0 11.6929 8.26772"
 xmlns:xlink="http://www.w3.org/1999/xlink">
 <defs>
  <style type="text/css">
   <![CDATA[
    .str0 {stroke:#002A6B;stroke-width:0.003}
    .str6 {stroke:#2A77C7;stroke-width:0.003}
    .str1 {stroke:#002A6B;stroke-width:0.00787402}
    .str10 {stroke:#003E98;stroke-width:0.00787402}
    .str4 {stroke:#044295;stroke-width:0.00787402}
    .str5 {stroke:#2A77C7;stroke-width:0.00787402}
    .str2 {stroke:#2B2A29;stroke-width:0.00666929;stroke-linecap:round;stroke-linejoin:round}
    .str8 {stroke:#044295;stroke-width:0.00666929;stroke-linecap:round;stroke-linejoin:round}
    .str3 {stroke:#2A77C7;stroke-width:0.00666929;stroke-linecap:round;stroke-linejoin:round}
    .str7 {stroke:#2B2A29;stroke-width:0.00667717;stroke-linecap:round;stroke-linejoin:round}
    .str9 {stroke:#2A77C7;stroke-width:0.00669291;stroke-linecap:round;stroke-linejoin:round}
    .fil3 {fill:none}
    .fil4 {fill:#A2D9F7}
    .fil5 {fill:#FEFEFE}
    .fil1 {fill:#002A6B}
    .fil2 {fill:#003E98}
    .fil6 {fill:#044295}
    .fil12 {fill:#25AAE2}
    .fil0 {fill:#2A77C7}
    .fil9 {fill:#827F70}
    .fil11 {fill:#FFF2D2}
    .fil7 {fill:#EEF8FE}
    .fil8 {fill:#2B2A29;fill-rule:nonzero}
    .fil13 {fill:#002A6B;fill-rule:nonzero}
    .fil10 {fill:#2A77C7;fill-rule:nonzero}
   ]]>
  </style>
    <mask id="id0">
  <linearGradient id="id1" gradientUnits="userSpaceOnUse" x1="6.22085" y1="2.98941" x2="5.47207" y2="5.27831">
   <stop offset="0" style="stop-opacity:1; stop-color:white"/>
   <stop offset="1" style="stop-opacity:0; stop-color:white"/>
  </linearGradient>
     <rect style="fill:url(#id1)" x="2.85975" y="1.14715" width="5.97341" height="5.97341"/>
    </mask>
    <clipPath id="id2">
     <path d="M5.84953 3.56295c0.0526496,0 0.0953228,0.0256772 0.0953228,0.0573622 0,0.0316772 -0.0426732,0.0573543 -0.0953228,0.0573543 -0.0526378,0 -0.095311,-0.0256772 -0.095311,-0.0573543 0,-0.031685 0.0426732,-0.0573622 0.095311,-0.0573622z"/>
    </clipPath>
    <clipPath id="id3">
     <path d="M5.56715 3.64826c0.0356181,-0.0134803 0.0618071,-0.00904331 0.0585079,0.00990945 -0.00330709,0.0189567 -0.0348583,0.0452559 -0.0704764,0.0587362 -0.0356181,0.0134803 -0.0618071,0.00904331 -0.0585,-0.00991339 0.00329921,-0.0189528 0.0348504,-0.045252 0.0704685,-0.0587323z"/>
    </clipPath>
    <clipPath id="id4">
     <path d="M5.4842 3.91403c0.0429016,-0.0162402 0.0744528,-0.0108976 0.0704685,0.0119331 -0.00397638,0.0228307 -0.0419882,0.0545079 -0.0848858,0.070748 -0.0429016,0.0162362 -0.0744449,0.0108937 -0.0704685,-0.011937 0.00398425,-0.0228307 0.0419882,-0.0545039 0.0848858,-0.0707441z"/>
    </clipPath>
    <clipPath id="id5">
     <path d="M6.12577 3.64826c-0.0356102,-0.0134803 -0.0618071,-0.00904331 -0.0585,0.00990945 0.00330709,0.0189567 0.0348583,0.0452559 0.0704685,0.0587362 0.0356181,0.0134803 0.061815,0.00904331 0.0585079,-0.00991339 -0.00330709,-0.0189528 -0.0348583,-0.045252 -0.0704764,-0.0587323z"/>
    </clipPath>
    <clipPath id="id6">
     <path d="M6.20871 3.91403c-0.0428937,-0.0162402 -0.0744449,-0.0108976 -0.0704685,0.0119331 0.00398425,0.0228307 0.0419882,0.0545079 0.0848937,0.070748 0.0428937,0.0162362 0.0744449,0.0108937 0.0704606,-0.011937 -0.00397638,-0.0228307 -0.0419803,-0.0545039 -0.0848858,-0.0707441z"/>
    </clipPath>
    <clipPath id="id7">
     <path d="M5.84953 3.87671c0.0526496,0 0.0953228,0.025685 0.0953228,0.0573583 0,0.0316772 -0.0426732,0.0573622 -0.0953228,0.0573622 -0.0526378,0 -0.095311,-0.025685 -0.095311,-0.0573622 0,-0.0316732 0.0426732,-0.0573583 0.095311,-0.0573583z"/>
    </clipPath>
 </defs>
 <g id="Layer_x0020_1">
  <metadata id="CorelCorpID_0Corel-Layer"/>
  <g id="_35342400">
   <path id="_217014712" class="fil0" style="mask:url(#id0)" d="M5.84646 1.15063c1.6476,0 2.98323,1.33563 2.98323,2.98323 0,1.6476 -1.33563,2.98323 -2.98323,2.98323 -1.6476,0 -2.98323,-1.33563 -2.98323,-2.98323 0,-1.6476 1.33563,-2.98323 2.98323,-2.98323z"/>
   <path id="_217014784" class="fil1" d="M5.84432 3.02594c0.109319,0 0.197941,-0.083622 0.197941,-0.186783 0,-0.103154 -0.088622,-0.186776 -0.197941,-0.186776 -0.109323,0 -0.197945,0.083622 -0.197945,0.186776 0,0.103161 0.088622,0.186783 0.197945,0.186783z"/>
   <path id="_217014976" class="fil2" d="M5.91041 2.60355l-0.133661 0 0.00956299 0.0169134 0 0.0400787c0.0183425,-0.00529921 0.0378189,-0.00815748 0.0580039,-0.00815748 0.0196457,0 0.0386142,0.00270866 0.0565315,0.00774016l0 -0.0396614 0.00956299 -0.0169134z"/>
   <polygon id="_217014592" class="fil1" points="5.90416,2.57563 5.78542,2.57563 5.77675,2.60355 5.91283,2.60355 "/>
   <polygon id="_217014256" class="fil2 str0" points="5.76215,3.1175 5.9265,3.1175 5.9265,2.78966 5.76215,2.78966 "/>
   <polygon id="_217014136" class="fil3" points="5.8035,2.81202 5.90426,2.81202 5.90426,3.09367 5.8035,3.09367 "/>
   <polygon id="_217014064" class="fil0" points="5.85388,3.02498 5.87907,3.05932 5.90426,3.09367 5.85388,3.09367 5.8035,3.09367 5.82869,3.05932 "/>
   <polygon id="_217014472" class="fil0" points="5.85388,2.85143 5.87907,2.83172 5.90426,2.81202 5.85388,2.81202 5.8035,2.81202 5.82869,2.83172 "/>
   <polygon id="_217014184" class="fil4" points="5.90425,2.81202 5.85388,2.85143 5.85388,3.02498 5.90425,3.09367 "/>
   <polygon id="_217013608" class="fil1" points="5.80351,2.81202 5.85388,2.85143 5.85388,3.02498 5.80351,3.09367 "/>
   <path id="_217013320" class="fil2 str0" d="M5.76179 3.1175c0.00019685,0 0.000358268,-0.000161417 0.000358268,-0.000358268l0 -0.327126c0,-0.000200787 -0.000204724,-0.000464567 -0.000358268,-0.000362205 -0.0249803,0.0168504 -0.111535,0.0788622 -0.111535,0.0790276l0 0.322165c0,0.000681102 0.101843,-0.0733465 0.111535,-0.0733465z"/>
   <polygon id="_217013512" class="fil0" points="5.70814,3.05765 5.7256,3.08265 5.74306,3.10764 5.70814,3.12633 5.67322,3.14503 5.69068,3.10134 "/>
   <polygon id="_217013728" class="fil0" points="5.7074,2.89587 5.74306,2.82599 5.67325,2.8756 5.68994,2.88551 "/>
   <polygon id="_217013152" class="fil4" points="5.74306,2.82599 5.70814,2.89421 5.70814,3.05765 5.74306,3.10764 "/>
   <polygon id="_217013704" class="fil1" points="5.67323,2.87559 5.70814,2.89421 5.70814,3.05765 5.67323,3.14503 "/>
   <path id="_217012408" class="fil0 str0" d="M5.92685 3.11715c-0.000200787,0 -0.000358268,-0.000161417 -0.000358268,-0.000362205l0 -0.327126c0,-0.000200787 0.000200787,-0.000464567 0.000358268,-0.000358268 0.0249803,0.0168465 0.111531,0.0788583 0.111531,0.0790276l0 0.322717c0,0.000681102 -0.101839,-0.0738976 -0.111531,-0.0738976z"/>
   <polygon id="_217012432" class="fil0" points="5.9805,3.05729 5.96304,3.08228 5.94559,3.10728 5.9805,3.12598 6.01541,3.14467 5.99796,3.10098 "/>
   <polygon id="_217012384" class="fil0" points="5.98124,2.89551 5.94559,2.82563 6.01539,2.87524 5.9987,2.88515 "/>
   <polygon id="_217012360" class="fil1" points="5.94559,2.82563 5.9805,2.89385 5.9805,3.05729 5.94559,3.10728 "/>
   <polygon id="_217012624" class="fil4" points="6.01541,2.87523 5.9805,2.89385 5.9805,3.05729 6.01541,3.14467 "/>
   <polygon id="_217012288" class="fil5" points="5.79976,1.84767 5.5786,1.84767 5.55926,1.82832 5.49322,1.89436 5.55926,1.9604 5.5786,1.94106 5.79976,1.94106 5.79976,2.57563 5.89315,2.57563 5.89315,1.94106 6.11431,1.94106 6.13365,1.9604 6.19969,1.89436 6.13365,1.82832 6.11431,1.84767 5.89315,1.84767 5.89315,1.6265 5.91249,1.60716 5.84646,1.54113 5.78042,1.60716 5.79976,1.6265 "/>
   <polygon id="_217012192" class="fil6" points="5.77767,1.86556 5.71691,1.86556 5.57304,1.86556 5.56045,1.85363 5.51749,1.89436 5.56045,1.93509 5.57304,1.92316 5.71691,1.92316 5.77767,1.92316 5.79976,1.92316 5.81766,1.92316 5.81766,2.55871 5.87525,2.55871 5.87525,1.92316 5.89315,1.92316 5.91524,1.92316 5.976,1.92316 6.11988,1.92316 6.13246,1.93509 6.17543,1.89436 6.13246,1.85363 6.11988,1.86556 5.976,1.86556 5.91524,1.86556 5.89315,1.86556 5.87525,1.86556 5.87525,1.82557 5.87525,1.76482 5.87525,1.62094 5.88718,1.60836 5.84646,1.56539 5.80573,1.60836 5.81766,1.62094 5.81766,1.76482 5.81766,1.82557 5.81766,1.86556 5.79976,1.86556 "/>
   <polygon id="_217011952" class="fil1" points="5.92331,3.16688 6.03278,3.24308 6.03278,3.26305 5.92427,3.19024 5.84646,3.19024 5.84646,3.16688 "/>
   <polygon id="_217011880" class="fil1 str1" points="5.92937,3.1175 6.04748,3.19972 6.04748,3.22127 5.93041,3.14271 5.84646,3.14271 5.84646,3.1175 "/>
   <polygon id="_217011712" class="fil1" points="5.7696,3.16688 5.66013,3.24308 5.66013,3.26305 5.76864,3.19024 5.84646,3.19024 5.84646,3.16688 "/>
   <polygon id="_217011328" class="fil1 str1" points="5.76354,3.1175 5.64543,3.19972 5.64543,3.22127 5.7625,3.14271 5.84646,3.14271 5.84646,3.1175 "/>
   <polygon id="_217011088" class="fil0" points="5.84646,3.16354 5.76855,3.16356 5.66314,3.23702 5.65215,3.22066 5.76354,3.14602 5.84646,3.14604 5.92938,3.14602 6.04076,3.22066 6.02978,3.23702 5.92437,3.16356 "/>
   <polygon id="_217011304" class="fil2" points="5.84712,3.19275 5.77242,3.19263 5.48406,4.53389 5.84646,3.8809 6.20885,4.53389 5.92064,3.19275 "/>
   <polygon id="_217011520" class="fil1" points="5.48406,4.53391 5.77243,3.19263 5.64848,3.27529 5.1575,4.44209 5.32314,4.52142 5.14492,5.14499 "/>
   <polygon id="_217010872" class="fil0" points="6.20849,4.53219 5.92051,3.19275 6.04443,3.27529 6.53542,4.44209 6.36978,4.52142 6.549,5.14499 "/>
   <path id="_217011472" class="fil2" d="M5.84646 3.55987c0.0743228,0 0.134575,0.0345669 0.134575,0.0772165 0,0.0426378 -0.060252,0.0772126 -0.134575,0.0772126 -0.0743228,0 -0.134575,-0.0345748 -0.134575,-0.0772126 0,-0.0426496 0.060252,-0.0772165 0.134575,-0.0772165z"/>
   <path id="_217010104" class="fil0" d="M5.85219 3.54883c0.0701772,0 0.127075,0.0335827 0.127075,0.0750118 0,0.0414252 -0.0568976,0.0750079 -0.127075,0.0750079 -0.0701772,0 -0.127063,-0.0335827 -0.127063,-0.0750079 0,-0.0414291 0.0568858,-0.0750118 0.127063,-0.0750118z"/>
   <path id="_217010296" class="fil2" d="M5.84953 3.56295c0.0526496,0 0.0953228,0.0256772 0.0953228,0.0573622 0,0.0316772 -0.0426732,0.0573543 -0.0953228,0.0573543 -0.0526378,0 -0.095311,-0.0256772 -0.095311,-0.0573543 0,-0.031685 0.0426732,-0.0573622 0.095311,-0.0573622z"/>
   <g style="clip-path:url(#id2)">
    <g>
     <ellipse id="_35336448" class="fil1" cx="5.84953" cy="3.64239" rx="0.0953167" ry="0.0573588"/>
    </g>
   </g>
   <path class="fil3" d="M5.84953 3.56295c0.0526496,0 0.0953228,0.0256772 0.0953228,0.0573622 0,0.0316772 -0.0426732,0.0573543 -0.0953228,0.0573543 -0.0526378,0 -0.095311,-0.0256772 -0.095311,-0.0573543 0,-0.031685 0.0426732,-0.0573622 0.095311,-0.0573622z"/>
   <path id="_217010200" class="fil2" d="M5.56539 3.6472c0.0502874,-0.0190354 0.087437,-0.0137795 0.0829921,0.0117362 -0.00445276,0.0255157 -0.0488228,0.0616299 -0.0991102,0.0806654 -0.0502795,0.0190354 -0.0874409,0.0137835 -0.0829882,-0.0117362 0.00445276,-0.0255157 0.0488228,-0.0616299 0.0991063,-0.0806654z"/>
   <path id="_217010176" class="fil0" d="M5.57042 3.63913c0.0474764,-0.0179724 0.0824685,-0.0124528 0.0781457,0.0123425 -0.0043189,0.0247835 -0.046315,0.0594488 -0.0937953,0.0774252 -0.0474843,0.0179685 -0.0824685,0.0124488 -0.0781496,-0.0123425 0.00432283,-0.0247874 0.0463189,-0.0594488 0.0937992,-0.0774252z"/>
   <path id="_217010272" class="fil2" d="M5.56715 3.64826c0.0356181,-0.0134803 0.0618071,-0.00904331 0.0585079,0.00990945 -0.00330709,0.0189567 -0.0348583,0.0452559 -0.0704764,0.0587362 -0.0356181,0.0134803 -0.0618071,0.00904331 -0.0585,-0.00991339 0.00329921,-0.0189528 0.0348504,-0.045252 0.0704685,-0.0587323z"/>
   <g style="clip-path:url(#id3)">
    <g>
     <ellipse id="_35337120" class="fil1" transform="matrix(0.418308 -0.15835 -0.0727288 0.417065 5.55886 3.69579)" rx="0.154165" ry="0.0822913"/>
    </g>
   </g>
   <path class="fil3" d="M5.56715 3.64826c0.0356181,-0.0134803 0.0618071,-0.00904331 0.0585079,0.00990945 -0.00330709,0.0189567 -0.0348583,0.0452559 -0.0704764,0.0587362 -0.0356181,0.0134803 -0.0618071,0.00904331 -0.0585,-0.00991339 0.00329921,-0.0189528 0.0348504,-0.045252 0.0704685,-0.0587323z"/>
   <path id="_217010128" class="fil2" d="M5.48209 3.91275c0.0605669,-0.0229252 0.105323,-0.0165984 0.0999646,0.0141378 -0.00535827,0.0307362 -0.0588071,0.0742362 -0.11937,0.0971614 -0.0605669,0.0229252 -0.105323,0.0165984 -0.0999646,-0.0141378 0.00535433,-0.0307283 0.0588031,-0.0742362 0.11937,-0.0971614z"/>
   <path id="_217010464" class="fil0" d="M5.48815 3.90303c0.0571929,-0.0216496 0.0993346,-0.0149921 0.094126,0.0148583 -0.00520472,0.0298622 -0.0557953,0.0716181 -0.11298,0.0932638 -0.0571929,0.0216496 -0.0993346,0.015 -0.094126,-0.0148583 0.00520472,-0.0298583 0.0557874,-0.0716181 0.11298,-0.0932638z"/>
   <path id="_217009288" class="fil2" d="M5.4842 3.91403c0.0429016,-0.0162402 0.0744528,-0.0108976 0.0704685,0.0119331 -0.00397638,0.0228307 -0.0419882,0.0545079 -0.0848858,0.070748 -0.0429016,0.0162362 -0.0744449,0.0108937 -0.0704685,-0.011937 0.00398425,-0.0228307 0.0419882,-0.0545039 0.0848858,-0.0707441z"/>
   <g style="clip-path:url(#id4)">
    <g>
     <ellipse id="_35336472" class="fil1" transform="matrix(0.503857 -0.190734 -0.0876028 0.50236 5.47422 3.97128)" rx="0.154165" ry="0.0822913"/>
    </g>
   </g>
   <path class="fil3" d="M5.4842 3.91403c0.0429016,-0.0162402 0.0744528,-0.0108976 0.0704685,0.0119331 -0.00397638,0.0228307 -0.0419882,0.0545079 -0.0848858,0.070748 -0.0429016,0.0162362 -0.0744449,0.0108937 -0.0704685,-0.011937 0.00398425,-0.0228307 0.0419882,-0.0545039 0.0848858,-0.0707441z"/>
   <path id="_217009888" class="fil2" d="M6.12752 3.6472c-0.0502795,-0.0190354 -0.087437,-0.0137795 -0.0829843,0.0117362 0.00444488,0.0255157 0.0488189,0.0616299 0.0991024,0.0806654 0.0502795,0.0190354 0.0874409,0.0137835 0.0829882,-0.0117362 -0.00444488,-0.0255157 -0.048815,-0.0616299 -0.0991063,-0.0806654z"/>
   <path id="_217009792" class="fil0" d="M6.1225 3.63913c-0.0474764,-0.0179724 -0.0824685,-0.0124528 -0.0781417,0.0123425 0.00432283,0.0247835 0.0463189,0.0594488 0.0937992,0.0774252 0.0474764,0.0179685 0.0824685,0.0124488 0.0781417,-0.0123425 -0.00432283,-0.0247874 -0.0463189,-0.0594488 -0.0937992,-0.0774252z"/>
   <path id="_217009648" class="fil2" d="M6.12577 3.64826c-0.0356102,-0.0134803 -0.0618071,-0.00904331 -0.0585,0.00990945 0.00330709,0.0189567 0.0348583,0.0452559 0.0704685,0.0587362 0.0356181,0.0134803 0.061815,0.00904331 0.0585079,-0.00991339 -0.00330709,-0.0189528 -0.0348583,-0.045252 -0.0704764,-0.0587323z"/>
   <g style="clip-path:url(#id5)">
    <g>
     <ellipse id="_35336808" class="fil1" transform="matrix(-0.418308 -0.15835 0.0727288 0.417065 6.13406 3.69579)" rx="0.154165" ry="0.0822913"/>
    </g>
   </g>
   <path class="fil3" d="M6.12577 3.64826c-0.0356102,-0.0134803 -0.0618071,-0.00904331 -0.0585,0.00990945 0.00330709,0.0189567 0.0348583,0.0452559 0.0704685,0.0587362 0.0356181,0.0134803 0.061815,0.00904331 0.0585079,-0.00991339 -0.00330709,-0.0189528 -0.0348583,-0.045252 -0.0704764,-0.0587323z"/>
   <path id="_217009360" class="fil2" d="M6.21083 3.91275c-0.0605669,-0.0229252 -0.105323,-0.0165984 -0.0999646,0.0141378 0.00536614,0.0307362 0.0588071,0.0742362 0.119378,0.0971614 0.0605669,0.0229252 0.105323,0.0165984 0.0999567,-0.0141378 -0.00535433,-0.0307283 -0.0587992,-0.0742362 -0.11937,-0.0971614z"/>
   <path id="_217009552" class="fil0" d="M6.20477 3.90303c-0.057185,-0.0216496 -0.0993268,-0.0149921 -0.094126,0.0148583 0.0052126,0.0298622 0.0557953,0.0716181 0.112988,0.0932638 0.057185,0.0216496 0.0993268,0.015 0.094122,-0.0148583 -0.00520079,-0.0298583 -0.0557913,-0.0716181 -0.112984,-0.0932638z"/>
   <path id="_217009336" class="fil2" d="M6.20871 3.91403c-0.0428937,-0.0162402 -0.0744449,-0.0108976 -0.0704685,0.0119331 0.00398425,0.0228307 0.0419882,0.0545079 0.0848937,0.070748 0.0428937,0.0162362 0.0744449,0.0108937 0.0704606,-0.011937 -0.00397638,-0.0228307 -0.0419803,-0.0545039 -0.0848858,-0.0707441z"/>
   <g style="clip-path:url(#id6)">
    <g>
     <ellipse id="_35335824" class="fil1" transform="matrix(-0.503857 -0.190734 0.0876028 0.50236 6.2187 3.97128)" rx="0.154165" ry="0.0822913"/>
    </g>
   </g>
   <path class="fil3" d="M6.20871 3.91403c-0.0428937,-0.0162402 -0.0744449,-0.0108976 -0.0704685,0.0119331 0.00398425,0.0228307 0.0419882,0.0545079 0.0848937,0.070748 0.0428937,0.0162362 0.0744449,0.0108937 0.0704606,-0.011937 -0.00397638,-0.0228307 -0.0419803,-0.0545039 -0.0848858,-0.0707441z"/>
   <path id="_217010008" class="fil2" d="M5.84646 3.87362c0.0743228,0 0.134575,0.0345669 0.134575,0.0772126 0,0.0426457 -0.060252,0.0772126 -0.134575,0.0772126 -0.0743228,0 -0.134575,-0.0345669 -0.134575,-0.0772126 0,-0.0426457 0.060252,-0.0772126 0.134575,-0.0772126z"/>
   <path id="_217008688" class="fil0" d="M5.85219 3.86259c0.0701772,0 0.127075,0.0335827 0.127075,0.0750039 0,0.0414291 -0.0568976,0.0750079 -0.127075,0.0750079 -0.0701772,0 -0.127063,-0.0335787 -0.127063,-0.0750079 0,-0.0414213 0.0568858,-0.0750039 0.127063,-0.0750039z"/>
   <path id="_217008952" class="fil2" d="M5.84953 3.87671c0.0526496,0 0.0953228,0.025685 0.0953228,0.0573583 0,0.0316772 -0.0426732,0.0573622 -0.0953228,0.0573622 -0.0526378,0 -0.095311,-0.025685 -0.095311,-0.0573622 0,-0.0316732 0.0426732,-0.0573583 0.095311,-0.0573583z"/>
   <g style="clip-path:url(#id7)">
    <g>
     <ellipse id="_35336184" class="fil1" cx="5.84953" cy="3.95615" rx="0.0953167" ry="0.0573588"/>
    </g>
   </g>
   <path class="fil3" d="M5.84953 3.87671c0.0526496,0 0.0953228,0.025685 0.0953228,0.0573583 0,0.0316772 -0.0426732,0.0573622 -0.0953228,0.0573622 -0.0526378,0 -0.095311,-0.025685 -0.095311,-0.0573622 0,-0.0316732 0.0426732,-0.0573583 0.095311,-0.0573583z"/>
   <polygon id="_217008904" class="fil7" points="7.08561,6.48959 7.08561,5.72004 6.79907,4.78644 6.55335,5.33459 6.34654,5.31633 5.84646,4.34271 5.34637,5.31633 5.13982,5.32982 4.89384,4.78644 4.6073,5.72004 4.6073,6.48959 5.11111,6.18392 6.58181,6.18392 "/>
   <polygon id="_217009144" class="fil6" points="5.14492,5.14499 4.71915,4.23215 5.32314,4.52142 "/>
   <polygon id="_217008928" class="fil6" points="6.549,5.14499 6.97376,4.23215 6.36978,4.52142 "/>
   <path id="_217008640" class="fil1" d="M6.79907 4.78644l0.183917 -0.410256 0.473575 1.48103 -0.115449 -0.042689 -0.00530709 -0.043189c-0.0884016,-0.152039 -0.174839,-0.217469 -0.199461,-0.0393858l-0.000795276 0.00655906 -0.0499449 -0.0184685 -0.286535 -0.933598z"/>
   <polygon id="_217008832" class="fil1" points="6.55442,5.3322 5.84646,4.05441 5.84646,4.34271 6.34654,5.31633 6.3789,5.20162 6.49614,5.33203 "/>
   <g>
    <path id="_217008160" class="fil8" d="M5.68372 4.81887l0.15978 -0.321358 0.00590551 0.00299213 -0.15978 0.321358 -0.00590551 -0.00299213zm0 0l0.00590551 0.00299213 -7.87402e-005 0.000149606 -8.66142e-005 0.000145669 -9.44882e-005 0.000141732 -9.84252e-005 0.000133858 -0.000102362 0.000125984 -0.000110236 0.000122047 -0.00011811 0.000114173 -0.00011811 0.000110236 -0.000125984 0.000102362 -0.000125984 9.44882e-005 -0.000133858 8.66142e-005 -0.000137795 8.26772e-005 -0.000141732 7.48031e-005 -0.000141732 6.69291e-005 -0.000145669 6.29921e-005 -0.000149606 5.51181e-005 -0.000153543 4.33071e-005 -0.000153543 3.93701e-005 -0.000153543 3.54331e-005 -0.00015748 2.3622e-005 -0.000161417 1.5748e-005 -0.00015748 7.87402e-006 -0.000161417 3.93701e-006 -0.000161417 -7.87402e-006 -0.00015748 -1.5748e-005 -0.000161417 -1.9685e-005 -0.000161417 -3.14961e-005 -0.00015748 -3.93701e-005 -0.00015748 -4.72441e-005 -0.00015748 -5.51181e-005 -0.00015748 -6.69291e-005 -0.000153543 -7.08661e-005 -0.000149606 -7.87402e-005 -0.000145669 -9.05512e-005 -0.000137795 -9.05512e-005 -0.000129921 -0.000102362 -0.000125984 -0.000106299 -0.000122047 -0.000110236 -0.000114173 -0.000114173 -0.000106299 -0.000122047 -0.000102362 -0.000125984 -9.44882e-005 -0.000129921 -8.66142e-005 -0.000133858 -8.26772e-005 -0.000137795 -7.48031e-005 -0.000141732 -6.69291e-005 -0.000145669 -5.90551e-005 -0.000149606 -5.51181e-005 -0.000149606 -4.72441e-005 -0.000153543 -3.93701e-005 -0.000153543 -3.14961e-005 -0.00015748 -2.3622e-005 -0.000161417 -1.5748e-005 -0.00015748 -7.87402e-006 -0.000161417 -3.93701e-006 -0.000161417 7.87402e-006 -0.000161417 1.5748e-005 -0.000165354 1.9685e-005 -0.000161417 3.14961e-005 -0.000161417 3.93701e-005 -0.000161417 4.72441e-005 -0.00015748 5.51181e-005 -0.000161417 6.29921e-005 -0.00015748 7.08661e-005 -0.000153543zm-0.159776 0.32135l0.159776 -0.32135 0.00590551 0.00299213 -0.159776 0.32135 -0.00295276 0.00183858 -0.00295276 -0.00483071zm0 0l0.00590551 0.00299213 -7.87402e-005 0.000149606 -8.66142e-005 0.000145669 -9.44882e-005 0.000141732 -9.84252e-005 0.000133858 -0.000102362 0.000125984 -0.000110236 0.000122047 -0.00011811 0.000114173 -0.00011811 0.000110236 -0.000125984 0.000102362 -0.000125984 9.44882e-005 -0.000133858 8.66142e-005 -0.000137795 8.26772e-005 -0.000141732 7.48031e-005 -0.000141732 6.69291e-005 -0.000145669 6.29921e-005 -0.000149606 5.51181e-005 -0.000153543 4.33071e-005 -0.000153543 3.93701e-005 -0.000153543 3.54331e-005 -0.00015748 2.3622e-005 -0.000161417 1.5748e-005 -0.00015748 7.87402e-006 -0.000161417 3.93701e-006 -0.000161417 -7.87402e-006 -0.00015748 -1.5748e-005 -0.000161417 -1.9685e-005 -0.000161417 -3.14961e-005 -0.00015748 -3.93701e-005 -0.00015748 -4.72441e-005 -0.00015748 -5.51181e-005 -0.00015748 -6.69291e-005 -0.000153543 -7.08661e-005 -0.000149606 -7.87402e-005 -0.000145669 -9.05512e-005 -0.000137795 -9.05512e-005 -0.000129921 -0.000102362 -0.000125984 -0.000106299 -0.000122047 -0.000110236 -0.000114173 -0.000114173 -0.000106299 -0.000122047 -0.000102362 -0.000125984 -9.44882e-005 -0.000129921 -8.66142e-005 -0.000133858 -8.26772e-005 -0.000137795 -7.48031e-005 -0.000141732 -6.69291e-005 -0.000145669 -5.90551e-005 -0.000149606 -5.51181e-005 -0.000149606 -4.72441e-005 -0.000153543 -3.93701e-005 -0.000153543 -3.14961e-005 -0.00015748 -2.3622e-005 -0.000161417 -1.5748e-005 -0.00015748 -7.87402e-006 -0.000161417 -3.93701e-006 -0.000161417 7.87402e-006 -0.000161417 1.5748e-005 -0.000165354 1.9685e-005 -0.000161417 3.14961e-005 -0.000161417 3.93701e-005 -0.000161417 4.72441e-005 -0.00015748 5.51181e-005 -0.000161417 6.29921e-005 -0.00015748 7.08661e-005 -0.000153543zm0.322508 0.00483071l-0.319555 0 0 -0.00666929 0.319555 0 0 0 0 0.00666929zm0 0l0 -0.00666929 0.000169291 3.93701e-006 0.000169291 1.1811e-005 0.000165354 2.3622e-005 0.000161417 2.75591e-005 0.000161417 3.93701e-005 0.000153543 4.33071e-005 0.000153543 5.11811e-005 0.000149606 6.29921e-005 0.000149606 6.69291e-005 0.000141732 7.08661e-005 0.000137795 8.26772e-005 0.000133858 8.66142e-005 0.000129921 9.05512e-005 0.000125984 0.000102362 0.00011811 0.000102362 0.000114173 0.000110236 0.000110236 0.00011811 0.000102362 0.000122047 9.84252e-005 0.000125984 9.44882e-005 0.000129921 8.26772e-005 0.000133858 8.26772e-005 0.000141732 7.08661e-005 0.000141732 6.69291e-005 0.000149606 5.90551e-005 0.000149606 5.11811e-005 0.000153543 4.72441e-005 0.000161417 3.54331e-005 0.000161417 2.75591e-005 0.000161417 2.3622e-005 0.000169291 1.1811e-005 0.000165354 3.93701e-006 0.000173228 -3.93701e-006 0.000173228 -1.1811e-005 0.000165354 -2.3622e-005 0.000169291 -2.75591e-005 0.000161417 -3.54331e-005 0.000161417 -4.72441e-005 0.000161417 -5.11811e-005 0.000153543 -5.90551e-005 0.000149606 -6.69291e-005 0.000149606 -7.08661e-005 0.000141732 -8.26772e-005 0.000141732 -8.26772e-005 0.000133858 -9.44882e-005 0.000129921 -9.84252e-005 0.000125984 -0.000102362 0.000122047 -0.000110236 0.00011811 -0.000114173 0.000110236 -0.00011811 0.000102362 -0.000125984 0.000102362 -0.000129921 9.05512e-005 -0.000133858 8.66142e-005 -0.000137795 8.26772e-005 -0.000141732 7.08661e-005 -0.000149606 6.69291e-005 -0.000149606 6.29921e-005 -0.000153543 5.11811e-005 -0.000153543 4.33071e-005 -0.000161417 3.93701e-005 -0.000161417 2.75591e-005 -0.000165354 2.3622e-005 -0.000169291 1.1811e-005 -0.000169291 3.93701e-006zm0.319555 0l-0.319555 0 0 -0.00666929 0.319555 0 0.00295276 0.00183858 -0.00295276 0.00483071zm0 0l0 -0.00666929 0.000169291 3.93701e-006 0.000169291 1.1811e-005 0.000165354 2.3622e-005 0.000161417 2.75591e-005 0.000161417 3.93701e-005 0.000153543 4.33071e-005 0.000153543 5.11811e-005 0.000149606 6.29921e-005 0.000149606 6.69291e-005 0.000141732 7.08661e-005 0.000137795 8.26772e-005 0.000133858 8.66142e-005 0.000129921 9.05512e-005 0.000125984 0.000102362 0.00011811 0.000102362 0.000114173 0.000110236 0.000110236 0.00011811 0.000102362 0.000122047 9.84252e-005 0.000125984 9.44882e-005 0.000129921 8.26772e-005 0.000133858 8.26772e-005 0.000141732 7.08661e-005 0.000141732 6.69291e-005 0.000149606 5.90551e-005 0.000149606 5.11811e-005 0.000153543 4.72441e-005 0.000161417 3.54331e-005 0.000161417 2.75591e-005 0.000161417 2.3622e-005 0.000169291 1.1811e-005 0.000165354 3.93701e-006 0.000173228 -3.93701e-006 0.000173228 -1.1811e-005 0.000165354 -2.3622e-005 0.000169291 -2.75591e-005 0.000161417 -3.54331e-005 0.000161417 -4.72441e-005 0.000161417 -5.11811e-005 0.000153543 -5.90551e-005 0.000149606 -6.69291e-005 0.000149606 -7.08661e-005 0.000141732 -8.26772e-005 0.000141732 -8.26772e-005 0.000133858 -9.44882e-005 0.000129921 -9.84252e-005 0.000125984 -0.000102362 0.000122047 -0.000110236 0.00011811 -0.000114173 0.000110236 -0.00011811 0.000102362 -0.000125984 0.000102362 -0.000129921 9.05512e-005 -0.000133858 8.66142e-005 -0.000137795 8.26772e-005 -0.000141732 7.08661e-005 -0.000149606 6.69291e-005 -0.000149606 6.29921e-005 -0.000153543 5.11811e-005 -0.000153543 4.33071e-005 -0.000161417 3.93701e-005 -0.000161417 2.75591e-005 -0.000165354 2.3622e-005 -0.000169291 1.1811e-005 -0.000169291 3.93701e-006zm-0.156823 -0.326181l0.159776 0.32135 -0.00590551 0.00299213 -0.159776 -0.32135 0.00590551 -0.00299213zm0 0l-0.00590551 0.00299213 -7.08661e-005 -0.000153543 -6.29921e-005 -0.00015748 -5.51181e-005 -0.000161417 -4.72441e-005 -0.00015748 -3.93701e-005 -0.000161417 -3.14961e-005 -0.000161417 -1.9685e-005 -0.000161417 -1.5748e-005 -0.000165354 -7.87402e-006 -0.000161417 3.93701e-006 -0.000161417 7.87402e-006 -0.000161417 1.5748e-005 -0.00015748 2.3622e-005 -0.000161417 3.14961e-005 -0.00015748 3.93701e-005 -0.000153543 4.72441e-005 -0.000153543 5.51181e-005 -0.000149606 5.90551e-005 -0.000149606 6.69291e-005 -0.000145669 7.48031e-005 -0.000141732 8.26772e-005 -0.000137795 8.66142e-005 -0.000133858 9.44882e-005 -0.000129921 0.000102362 -0.000125984 0.000106299 -0.000122047 0.000114173 -0.000114173 0.000122047 -0.000110236 0.000125984 -0.000106299 0.000129921 -0.000102362 0.000137795 -9.05512e-005 0.000145669 -9.05512e-005 0.000149606 -7.87402e-005 0.000153543 -7.08661e-005 0.00015748 -6.69291e-005 0.00015748 -5.51181e-005 0.00015748 -4.72441e-005 0.00015748 -3.93701e-005 0.000161417 -3.14961e-005 0.000161417 -1.9685e-005 0.00015748 -1.5748e-005 0.000161417 -7.87402e-006 0.000161417 3.93701e-006 0.00015748 7.87402e-006 0.000161417 1.5748e-005 0.00015748 2.3622e-005 0.000153543 3.54331e-005 0.000153543 3.93701e-005 0.000153543 4.33071e-005 0.000149606 5.51181e-005 0.000145669 6.29921e-005 0.000141732 6.69291e-005 0.000141732 7.48031e-005 0.000137795 8.26772e-005 0.000133858 8.66142e-005 0.000125984 9.44882e-005 0.000125984 0.000102362 0.00011811 0.000110236 0.00011811 0.000114173 0.000110236 0.000122047 0.000102362 0.000125984 9.84252e-005 0.000133858 9.44882e-005 0.000141732 8.66142e-005 0.000145669 7.87402e-005 0.000149606zm-0.15978 -0.321358l0.15978 0.321358 -0.00590551 0.00299213 -0.15978 -0.321358 0 -0.00299213 0.00590551 0zm0 0l-0.00590551 0.00299213 -7.08661e-005 -0.000153543 -6.29921e-005 -0.00015748 -5.51181e-005 -0.000161417 -4.72441e-005 -0.00015748 -3.93701e-005 -0.000161417 -3.14961e-005 -0.000161417 -1.9685e-005 -0.000161417 -1.5748e-005 -0.000165354 -7.87402e-006 -0.000161417 3.93701e-006 -0.000161417 7.87402e-006 -0.000161417 1.5748e-005 -0.00015748 2.3622e-005 -0.000161417 3.14961e-005 -0.00015748 3.93701e-005 -0.000153543 4.72441e-005 -0.000153543 5.51181e-005 -0.000149606 5.90551e-005 -0.000149606 6.69291e-005 -0.000145669 7.48031e-005 -0.000141732 8.26772e-005 -0.000137795 8.66142e-005 -0.000133858 9.44882e-005 -0.000129921 0.000102362 -0.000125984 0.000106299 -0.000122047 0.000114173 -0.000114173 0.000122047 -0.000110236 0.000125984 -0.000106299 0.000129921 -0.000102362 0.000137795 -9.05512e-005 0.000145669 -9.05512e-005 0.000149606 -7.87402e-005 0.000153543 -7.08661e-005 0.00015748 -6.69291e-005 0.00015748 -5.51181e-005 0.00015748 -4.72441e-005 0.00015748 -3.93701e-005 0.000161417 -3.14961e-005 0.000161417 -1.9685e-005 0.00015748 -1.5748e-005 0.000161417 -7.87402e-006 0.000161417 3.93701e-006 0.00015748 7.87402e-006 0.000161417 1.5748e-005 0.00015748 2.3622e-005 0.000153543 3.54331e-005 0.000153543 3.93701e-005 0.000153543 4.33071e-005 0.000149606 5.51181e-005 0.000145669 6.29921e-005 0.000141732 6.69291e-005 0.000141732 7.48031e-005 0.000137795 8.26772e-005 0.000133858 8.66142e-005 0.000125984 9.44882e-005 0.000125984 0.000102362 0.00011811 0.000110236 0.00011811 0.000114173 0.000110236 0.000122047 0.000102362 0.000125984 9.84252e-005 0.000133858 9.44882e-005 0.000141732 8.66142e-005 0.000145669 7.87402e-005 0.000149606z"/>
   </g>
   <polygon class="fil3 str2" points="5.84646,4.47163 5.67307,4.81606 5.49968,5.16048 5.84646,5.16048 6.19324,5.16048 6.01985,4.81606 "/>
   <path class="fil1" d="M4.89384 4.78644l-0.183917 -0.410256 -0.473575 1.48103 0.115449 -0.042689 0.00530709 -0.043189c0.0884016,-0.152039 0.174839,-0.217469 0.199461,-0.0393858l0.000795276 0.00655906 0.0499449 -0.0184685 0.286535 -0.933598z"/>
   <path class="fil0" d="M6.45097 5.40811c0.0519843,0 0.094126,0.0227165 0.094126,0.0507402 0,0.0135079 -0.0097874,0.0257756 -0.0257362,0.0348661l0 -0.0172126 0 -0.00587008 -0.00046063 0c-0.0040748,-0.026063 -0.0349094,-0.0463307 -0.0723425,-0.0463307 -0.0374331,0 -0.0682677,0.0202677 -0.0723386,0.0463307l-0.000464567 0 0 0.0172362c-0.0106535,-0.00822441 -0.0169094,-0.0182244 -0.0169094,-0.0290197 0,-0.0280236 0.0421417,-0.0507402 0.094126,-0.0507402z"/>
   <path class="fil2" d="M6.56495 5.43245l-0.0129291 -0.10026 -0.0558819 -0.000165354 -0.117244 -0.130409 -0.0323583 0.114717 -0.0196063 0.102098 0.0104488 0.00917717c0.00483071,-0.0297795 0.0538346,-0.0531772 0.113587,-0.0531772 0.0629528,0 0.113984,0.0259764 0.113984,0.0580197z"/>
   <path class="fil1" d="M6.45097 5.37443c0.0629528,0 0.113984,0.0259764 0.113984,0.0580197 0,0.0124291 -0.0076811,0.0239409 -0.020748,0.0333819 0.000582677,-0.00228346 0.000889764,-0.00461417 0.000889764,-0.00698819 0,-0.0280236 -0.0421417,-0.0507402 -0.094126,-0.0507402 -0.0519843,0 -0.094126,0.0227165 -0.094126,0.0507402 0,0.00237402 0.000307087,0.00470472 0.000889764,0.00698819 -0.0130669,-0.00944094 -0.020748,-0.0209528 -0.020748,-0.0333819 0,-0.0320433 0.0510315,-0.0580197 0.113984,-0.0580197z"/>
   <path class="fil0" d="M7.23944 5.84725c0.0495748,0 0.0897598,0.0227165 0.0897598,0.0507441 0,0.0135039 -0.00933071,0.0257717 -0.0245433,0.0348622l0 -0.0172087 0 -0.00587402 -0.000440945 0c-0.00388189,-0.026063 -0.0332835,-0.0463307 -0.0689843,-0.0463307 -0.0356969,0 -0.0650984,0.0202677 -0.0689843,0.0463307l-0.000440945 0 0 0.0172402c-0.0101575,-0.00822441 -0.016126,-0.0182283 -0.016126,-0.0290197 0,-0.0280276 0.040185,-0.0507441 0.0897598,-0.0507441z"/>
   <path class="fil6" d="M7.16581 5.90977l0.000440945 0c0.00388583,-0.026063 0.0332874,-0.0463307 0.0689843,-0.0463307 0.0356969,0 0.0651024,0.0202677 0.0689882,0.0463307l0.000437008 0 0 0.00587402 0 0.810941 -0.13885 -0.0830236 0 -0.733791z"/>
   <path class="fil1" d="M7.23944 5.81357c0.0600315,0 0.108697,0.0259764 0.108697,0.0580197 0,0.0124291 -0.00732677,0.0239409 -0.0197874,0.0333819 0.000559055,-0.00228346 0.000850394,-0.00461417 0.000850394,-0.00698425 0,-0.0280276 -0.040185,-0.0507441 -0.0897598,-0.0507441 -0.0495748,0 -0.0897598,0.0227165 -0.0897598,0.0507441 0,0.00237008 0.000295276,0.00470079 0.000850394,0.00698425 -0.0124606,-0.00944094 -0.0197874,-0.0209528 -0.0197874,-0.0333819 0,-0.0320433 0.0486654,-0.0580197 0.108697,-0.0580197z"/>
   <polygon class="fil6 str3" points="6.57189,5.2932 6.76817,4.85539 6.97017,5.52354 "/>
   <polygon class="fil6 str4" points="6.51936,5.98624 6.51936,5.61268 6.97606,5.84947 6.97606,6.22303 "/>
   <polygon class="fil9 str5" points="6.51936,5.96419 6.51936,5.66121 6.95253,5.873 6.95253,6.18332 "/>
   <path class="fil2" d="M7.34814 5.87159l-0.0123268 -0.10026c-0.0883976,-0.152039 -0.174839,-0.217469 -0.199461,-0.0393858l-0.015189 0.125626 0.00996457 0.00917717c0.0046063,-0.0297795 0.0513386,-0.0531772 0.108315,-0.0531772 0.0600315,0 0.108697,0.0259764 0.108697,0.0580197z"/>
   <polygon class="fil1" points="5.1385,5.3322 5.84646,4.05441 5.84646,4.34271 5.34637,5.31633 5.31402,5.20162 5.19677,5.33203 "/>
   <polygon class="fil6 str3" points="5.84646,4.47163 6.01985,4.81606 6.19324,5.16048 5.84646,5.16048 5.49968,5.16048 5.67307,4.81606 "/>
   <path class="fil0" d="M5.24194 5.40811c-0.0519843,0 -0.094126,0.0227165 -0.094126,0.0507402 0,0.0135079 0.0097874,0.0257756 0.0257362,0.0348661l0 -0.0172126 0 -0.00587008 0.00046063 0c0.0040748,-0.026063 0.0349055,-0.0463307 0.0723425,-0.0463307 0.0374331,0 0.0682677,0.0202677 0.0723386,0.0463307l0.000464567 0 0 0.0172362c0.0106535,-0.00822441 0.0169094,-0.0182244 0.0169094,-0.0290197 0,-0.0280236 -0.0421417,-0.0507402 -0.094126,-0.0507402z"/>
   <path class="fil2" d="M5.12796 5.43245l0.0129291 -0.10026 0.0558819 -0.000165354 0.117244 -0.130409 0.0323583 0.114717 0.0196063 0.102098 -0.0104488 0.00917717c-0.00483071,-0.0297795 -0.0538346,-0.0531772 -0.113587,-0.0531772 -0.0629528,0 -0.113984,0.0259764 -0.113984,0.0580197z"/>
   <path class="fil1" d="M5.24194 5.37443c-0.0629528,0 -0.113984,0.0259764 -0.113984,0.0580197 0,0.0124291 0.0076811,0.0239409 0.020748,0.0333819 -0.000582677,-0.00228346 -0.000889764,-0.00461417 -0.000889764,-0.00698819 0,-0.0280236 0.0421417,-0.0507402 0.094126,-0.0507402 0.0519843,0 0.094126,0.0227165 0.094126,0.0507402 0,0.00237402 -0.000307087,0.00470472 -0.000889764,0.00698819 0.0130669,-0.00944094 0.020748,-0.0209528 0.020748,-0.0333819 0,-0.0320433 -0.0510315,-0.0580197 -0.113984,-0.0580197z"/>
   <path class="fil0" d="M4.45347 5.84725c-0.0495748,0 -0.0897598,0.0227165 -0.0897598,0.0507441 0,0.0135039 0.00933071,0.0257717 0.0245433,0.0348622l0 -0.0172087 0 -0.00587402 0.000440945 0c0.00388189,-0.026063 0.0332835,-0.0463307 0.0689843,-0.0463307 0.0356969,0 0.0650984,0.0202677 0.0689843,0.0463307l0.000440945 0 0 0.0172402c0.0101575,-0.00822441 0.016126,-0.0182283 0.016126,-0.0290197 0,-0.0280276 -0.040185,-0.0507441 -0.0897598,-0.0507441z"/>
   <path class="fil6" d="M4.52711 5.90977l-0.000440945 0c-0.00388583,-0.026063 -0.0332874,-0.0463307 -0.0689843,-0.0463307 -0.0356969,0 -0.0651024,0.0202677 -0.0689882,0.0463307l-0.000437008 0 0 0.00587402 0 0.806575 0.13885 -0.0830276 0 -0.729421z"/>
   <path class="fil1" d="M4.45347 5.81357c-0.0600315,0 -0.108697,0.0259764 -0.108697,0.0580197 0,0.0124291 0.00732677,0.0239409 0.0197874,0.0333819 -0.000559055,-0.00228346 -0.000850394,-0.00461417 -0.000850394,-0.00698425 0,-0.0280276 0.040185,-0.0507441 0.0897598,-0.0507441 0.0495748,0 0.0897598,0.0227165 0.0897598,0.0507441 0,0.00237008 -0.000295276,0.00470079 -0.000850394,0.00698425 0.0124606,-0.00944094 0.0197835,-0.0209528 0.0197835,-0.0333819 0,-0.0320433 -0.0486614,-0.0580197 -0.108693,-0.0580197z"/>
   <polygon class="fil6 str6" points="5.12114,5.29348 4.92474,4.85539 4.72274,5.52354 "/>
   <polygon class="fil6 str4" points="5.17356,5.98624 5.17356,5.61268 4.71685,5.84947 4.71685,6.22303 "/>
   <polygon class="fil9 str5" points="5.17356,5.96419 5.17356,5.66121 4.74039,5.873 4.74039,6.18332 "/>
   <path class="fil2" d="M4.34478 5.87159l0.0123268 -0.10026c0.0883976,-0.152039 0.174839,-0.217469 0.199461,-0.0393858l0.015189 0.125626 -0.00996457 0.00917717c-0.0046063,-0.0297795 -0.0513386,-0.0531772 -0.108315,-0.0531772 -0.0600315,0 -0.108697,0.0259764 -0.108697,0.0580197z"/>
   <polygon class="fil6" points="4.23635,5.66056 4.23635,4.81394 4.51205,4.81394 "/>
   <polygon class="fil6" points="7.45657,5.66056 7.45657,4.81394 7.18086,4.81394 "/>
   <polygon class="fil2" points="5.11111,6.29216 4.58596,6.60619 4.58596,6.50255 5.11111,6.18392 "/>
   <polygon class="fil2" points="6.58181,6.29216 7.10696,6.60619 7.10696,6.50255 6.58181,6.18392 "/>
   <polygon class="fil1" points="5.11111,6.18392 6.58181,6.18392 6.58181,6.29216 5.11111,6.29216 "/>
   <polygon class="fil1" points="5.84646,3.8809 5.14492,5.14499 4.7125,4.19712 4.23635,5.66056 4.23598,5.73993 4.7125,4.26772 5.14494,5.22898 5.84646,3.95083 6.54797,5.22898 6.98042,4.26772 7.45693,5.73993 7.45657,5.66056 6.98042,4.19712 6.548,5.14499 "/>
   <polygon class="fil1" points="7.30466,6.72659 4.38825,6.72222 5.11111,6.29216 6.58181,6.29216 "/>
   <polygon class="fil3 str2" points="5.52583,5.56714 6.16708,5.56714 6.16708,5.88335 5.52583,5.88335 "/>
   <polygon class="fil3 str7" points="5.50966,5.55206 6.18325,5.55206 6.18325,5.89843 5.50966,5.89843 "/>
   <polygon class="fil3 str2" points="5.47015,5.51696 6.22277,5.51696 6.22277,5.93354 5.47015,5.93354 "/>
   <path class="fil6" d="M5.31916 5.47063l-0.000464567 0c-0.00407087,-0.026063 -0.0349055,-0.0463307 -0.0723386,-0.0463307 -0.037437,0 -0.0682677,0.0202677 -0.0723425,0.0463307l-0.00046063 0 0 0.00587008 0 0.707421 0.145606 0 0 -0.713291z"/>
   <polygon class="fil6 str8" points="6.22277,5.51696 5.47015,5.51696 5.47015,5.93354 6.22277,5.93354 "/>
   <polygon class="fil9 str3" points="6.58459,5.26488 6.74091,4.9162 6.89957,5.44265 "/>
   <polygon class="fil9 str3" points="5.10832,5.26488 4.95201,4.9162 4.79334,5.44265 "/>
   <polygon class="fil7" points="7.45693,5.73993 6.98042,4.26772 6.54797,5.22898 5.84646,3.95083 5.14494,5.22898 4.7125,4.26772 4.23598,5.73993 4.23635,5.85721 4.70992,4.37619 5.14089,5.33219 5.84646,4.05441 6.55335,5.33459 6.98299,4.37619 7.45657,5.85721 "/>
   <g>
    <polygon class="fil9" points="5.84646,4.53412 5.99361,4.83232 6.14075,5.13053 5.84646,5.13053 5.55216,5.13053 5.69931,4.83232 "/>
    <path id="1" class="fil10" d="M5.99087 4.8337l-0.14715 -0.298205 0.00548031 -0.00276378 0.14715 0.298205 0 0 -0.00548031 0.00276378zm0 0l0.00548031 -0.00276378 6.69291e-005 0.000145669 5.90551e-005 0.000145669 5.11811e-005 0.000145669 4.33071e-005 0.000149606 3.54331e-005 0.000149606 2.75591e-005 0.000149606 1.9685e-005 0.000149606 1.1811e-005 0.000149606 3.93701e-006 0.000153543 0 0.000149606 -7.87402e-006 0.000149606 -1.5748e-005 0.000145669 -2.3622e-005 0.000149606 -3.14961e-005 0.000145669 -3.54331e-005 0.000145669 -4.33071e-005 0.000141732 -5.11811e-005 0.000137795 -5.51181e-005 0.000137795 -6.29921e-005 0.000133858 -6.69291e-005 0.000133858 -7.87402e-005 0.000125984 -7.87402e-005 0.000125984 -9.05512e-005 0.000122047 -9.44882e-005 0.000114173 -9.84252e-005 0.000114173 -0.000106299 0.000106299 -0.000110236 0.000102362 -0.00011811 9.84252e-005 -0.000122047 9.44882e-005 -0.000129921 8.66142e-005 -0.000133858 7.87402e-005 -0.000137795 7.48031e-005 -0.000141732 6.69291e-005 -0.000145669 5.90551e-005 -0.000145669 5.11811e-005 -0.000145669 4.33071e-005 -0.000149606 3.54331e-005 -0.000145669 2.75591e-005 -0.000149606 2.3622e-005 -0.000149606 1.1811e-005 -0.000149606 3.93701e-006 -0.000149606 0 -0.000145669 -7.87402e-006 -0.000145669 -1.9685e-005 -0.000145669 -1.9685e-005 -0.000145669 -3.14961e-005 -0.000141732 -3.93701e-005 -0.000141732 -4.33071e-005 -0.000137795 -4.72441e-005 -0.000133858 -5.90551e-005 -0.000133858 -6.29921e-005 -0.000129921 -7.08661e-005 -0.000129921 -7.48031e-005 -0.000122047 -8.26772e-005 -0.00011811 -9.05512e-005 -0.000114173 -9.44882e-005 -0.000114173 -0.000102362 -0.000106299 -0.000106299 -0.000102362 -0.000110236 -9.44882e-005 -0.000122047 -9.05512e-005 -0.000122047 -8.66142e-005 -0.000129921 -7.87402e-005 -0.000133858 -7.48031e-005 -0.000141732zm0.147146 0.298205l-0.147146 -0.298205 0.00548031 -0.00276378 0.147146 0.298205 -0.00274016 0.00447638 -0.00274016 -0.0017126zm0 0l0.00548031 -0.00276378 6.69291e-005 0.000145669 5.90551e-005 0.000145669 5.11811e-005 0.000145669 4.33071e-005 0.000149606 3.54331e-005 0.000149606 2.75591e-005 0.000149606 1.9685e-005 0.000149606 1.1811e-005 0.000149606 3.93701e-006 0.000153543 0 0.000149606 -7.87402e-006 0.000149606 -1.5748e-005 0.000145669 -2.3622e-005 0.000149606 -3.14961e-005 0.000145669 -3.54331e-005 0.000145669 -4.33071e-005 0.000141732 -5.11811e-005 0.000137795 -5.51181e-005 0.000137795 -6.29921e-005 0.000133858 -6.69291e-005 0.000133858 -7.87402e-005 0.000125984 -7.87402e-005 0.000125984 -9.05512e-005 0.000122047 -9.44882e-005 0.000114173 -9.84252e-005 0.000114173 -0.000106299 0.000106299 -0.000110236 0.000102362 -0.00011811 9.84252e-005 -0.000122047 9.44882e-005 -0.000129921 8.66142e-005 -0.000133858 7.87402e-005 -0.000137795 7.48031e-005 -0.000141732 6.69291e-005 -0.000145669 5.90551e-005 -0.000145669 5.11811e-005 -0.000145669 4.33071e-005 -0.000149606 3.54331e-005 -0.000145669 2.75591e-005 -0.000149606 2.3622e-005 -0.000149606 1.1811e-005 -0.000149606 3.93701e-006 -0.000149606 0 -0.000145669 -7.87402e-006 -0.000145669 -1.9685e-005 -0.000145669 -1.9685e-005 -0.000145669 -3.14961e-005 -0.000141732 -3.93701e-005 -0.000141732 -4.33071e-005 -0.000137795 -4.72441e-005 -0.000133858 -5.90551e-005 -0.000133858 -6.29921e-005 -0.000129921 -7.08661e-005 -0.000129921 -7.48031e-005 -0.000122047 -8.26772e-005 -0.00011811 -9.05512e-005 -0.000114173 -9.44882e-005 -0.000114173 -0.000102362 -0.000106299 -0.000106299 -0.000102362 -0.000110236 -9.44882e-005 -0.000122047 -9.05512e-005 -0.000122047 -8.66142e-005 -0.000129921 -7.87402e-005 -0.000133858 -7.48031e-005 -0.000141732zm-0.291555 -0.00447638l0.294295 0 0 0.00618898 -0.294295 0 0 0 0 -0.00618898zm0 0l0 0.00618898 -0.00015748 -3.93701e-006 -0.000153543 -1.1811e-005 -0.000153543 -1.9685e-005 -0.000153543 -2.75591e-005 -0.000145669 -3.54331e-005 -0.000145669 -3.93701e-005 -0.000141732 -5.11811e-005 -0.000141732 -5.51181e-005 -0.000133858 -6.29921e-005 -0.000133858 -6.69291e-005 -0.000125984 -7.48031e-005 -0.000125984 -7.87402e-005 -0.00011811 -8.66142e-005 -0.00011811 -9.44882e-005 -0.000110236 -9.44882e-005 -0.000106299 -0.000102362 -0.000102362 -0.000110236 -9.44882e-005 -0.000110236 -9.05512e-005 -0.00011811 -8.66142e-005 -0.000122047 -7.87402e-005 -0.000122047 -7.48031e-005 -0.000129921 -6.69291e-005 -0.000133858 -6.29921e-005 -0.000137795 -5.51181e-005 -0.000141732 -4.72441e-005 -0.000141732 -3.93701e-005 -0.000149606 -3.54331e-005 -0.000149606 -2.75591e-005 -0.000149606 -1.9685e-005 -0.00015748 -1.1811e-005 -0.00015748 -3.93701e-006 -0.00015748 3.93701e-006 -0.00015748 1.1811e-005 -0.00015748 1.9685e-005 -0.00015748 2.75591e-005 -0.000149606 3.54331e-005 -0.000149606 3.93701e-005 -0.000149606 4.72441e-005 -0.000141732 5.51181e-005 -0.000141732 6.29921e-005 -0.000137795 6.69291e-005 -0.000133858 7.48031e-005 -0.000129921 7.87402e-005 -0.000122047 8.66142e-005 -0.000122047 9.05512e-005 -0.00011811 9.44882e-005 -0.000110236 0.000102362 -0.000110236 0.000106299 -0.000102362 0.000110236 -9.44882e-005 0.00011811 -9.44882e-005 0.00011811 -8.66142e-005 0.000125984 -7.87402e-005 0.000125984 -7.48031e-005 0.000133858 -6.69291e-005 0.000133858 -6.29921e-005 0.000141732 -5.51181e-005 0.000141732 -5.11811e-005 0.000145669 -3.93701e-005 0.000145669 -3.54331e-005 0.000153543 -2.75591e-005 0.000153543 -1.9685e-005 0.000153543 -1.1811e-005 0.00015748 -3.93701e-006zm-0.294295 0l0.294295 0 0 0.00618898 -0.294295 0 -0.00274016 -0.00447638 0.00274016 -0.0017126zm0 0l0 0.00618898 -0.00015748 -3.93701e-006 -0.000153543 -1.1811e-005 -0.000153543 -1.9685e-005 -0.000153543 -2.75591e-005 -0.000145669 -3.54331e-005 -0.000145669 -3.93701e-005 -0.000141732 -5.11811e-005 -0.000141732 -5.51181e-005 -0.000133858 -6.29921e-005 -0.000133858 -6.69291e-005 -0.000125984 -7.48031e-005 -0.000125984 -7.87402e-005 -0.00011811 -8.66142e-005 -0.00011811 -9.44882e-005 -0.000110236 -9.44882e-005 -0.000106299 -0.000102362 -0.000102362 -0.000110236 -9.44882e-005 -0.000110236 -9.05512e-005 -0.00011811 -8.66142e-005 -0.000122047 -7.87402e-005 -0.000122047 -7.48031e-005 -0.000129921 -6.69291e-005 -0.000133858 -6.29921e-005 -0.000137795 -5.51181e-005 -0.000141732 -4.72441e-005 -0.000141732 -3.93701e-005 -0.000149606 -3.54331e-005 -0.000149606 -2.75591e-005 -0.000149606 -1.9685e-005 -0.00015748 -1.1811e-005 -0.00015748 -3.93701e-006 -0.00015748 3.93701e-006 -0.00015748 1.1811e-005 -0.00015748 1.9685e-005 -0.00015748 2.75591e-005 -0.000149606 3.54331e-005 -0.000149606 3.93701e-005 -0.000149606 4.72441e-005 -0.000141732 5.51181e-005 -0.000141732 6.29921e-005 -0.000137795 6.69291e-005 -0.000133858 7.48031e-005 -0.000129921 7.87402e-005 -0.000122047 8.66142e-005 -0.000122047 9.05512e-005 -0.00011811 9.44882e-005 -0.000110236 0.000102362 -0.000110236 0.000106299 -0.000102362 0.000110236 -9.44882e-005 0.00011811 -9.44882e-005 0.00011811 -8.66142e-005 0.000125984 -7.87402e-005 0.000125984 -7.48031e-005 0.000133858 -6.69291e-005 0.000133858 -6.29921e-005 0.000141732 -5.51181e-005 0.000141732 -5.11811e-005 0.000145669 -3.93701e-005 0.000145669 -3.54331e-005 0.000153543 -2.75591e-005 0.000153543 -1.9685e-005 0.000153543 -1.1811e-005 0.00015748 -3.93701e-006zm0.149886 -0.293728l-0.147146 0.298205 -0.00548031 -0.00276378 0.147146 -0.298205 0 0 0.00548031 0.00276378zm0 0l-0.00548031 -0.00276378 7.48031e-005 -0.000141732 7.87402e-005 -0.000133858 8.66142e-005 -0.000129921 9.05512e-005 -0.000122047 9.44882e-005 -0.000122047 0.000102362 -0.000110236 0.000106299 -0.000106299 0.000114173 -0.000102362 0.000114173 -9.44882e-005 0.00011811 -9.05512e-005 0.000122047 -8.26772e-005 0.000129921 -7.48031e-005 0.000129921 -7.08661e-005 0.000133858 -6.29921e-005 0.000133858 -5.90551e-005 0.000137795 -4.72441e-005 0.000141732 -4.33071e-005 0.000141732 -3.93701e-005 0.000145669 -3.14961e-005 0.000145669 -1.9685e-005 0.000145669 -1.9685e-005 0.000145669 -7.87402e-006 0.000149606 0 0.000149606 3.93701e-006 0.000149606 1.1811e-005 0.000149606 2.3622e-005 0.000145669 2.75591e-005 0.000149606 3.54331e-005 0.000145669 4.33071e-005 0.000145669 5.11811e-005 0.000145669 5.90551e-005 0.000141732 6.69291e-005 0.000137795 7.48031e-005 0.000133858 7.87402e-005 0.000129921 8.66142e-005 0.000122047 9.44882e-005 0.00011811 9.84252e-005 0.000110236 0.000102362 0.000106299 0.000106299 9.84252e-005 0.000114173 9.44882e-005 0.000114173 9.05512e-005 0.000122047 7.87402e-005 0.000125984 7.87402e-005 0.000125984 6.69291e-005 0.000133858 6.29921e-005 0.000133858 5.51181e-005 0.000137795 5.11811e-005 0.000137795 4.33071e-005 0.000141732 3.54331e-005 0.000145669 3.14961e-005 0.000145669 2.3622e-005 0.000149606 1.5748e-005 0.000145669 7.87402e-006 0.000149606 0 0.000149606 -3.93701e-006 0.000153543 -1.1811e-005 0.000149606 -1.9685e-005 0.000149606 -2.75591e-005 0.000149606 -3.54331e-005 0.000149606 -4.33071e-005 0.000149606 -5.11811e-005 0.000145669 -5.90551e-005 0.000145669 -6.69291e-005 0.000145669zm0.14715 -0.298205l-0.14715 0.298205 -0.00548031 -0.00276378 0.14715 -0.298205 0.00548031 0 0 0.00276378zm0 0l-0.00548031 -0.00276378 7.48031e-005 -0.000141732 7.87402e-005 -0.000133858 8.66142e-005 -0.000129921 9.05512e-005 -0.000122047 9.44882e-005 -0.000122047 0.000102362 -0.000110236 0.000106299 -0.000106299 0.000114173 -0.000102362 0.000114173 -9.44882e-005 0.00011811 -9.05512e-005 0.000122047 -8.26772e-005 0.000129921 -7.48031e-005 0.000129921 -7.08661e-005 0.000133858 -6.29921e-005 0.000133858 -5.90551e-005 0.000137795 -4.72441e-005 0.000141732 -4.33071e-005 0.000141732 -3.93701e-005 0.000145669 -3.14961e-005 0.000145669 -1.9685e-005 0.000145669 -1.9685e-005 0.000145669 -7.87402e-006 0.000149606 0 0.000149606 3.93701e-006 0.000149606 1.1811e-005 0.000149606 2.3622e-005 0.000145669 2.75591e-005 0.000149606 3.54331e-005 0.000145669 4.33071e-005 0.000145669 5.11811e-005 0.000145669 5.90551e-005 0.000141732 6.69291e-005 0.000137795 7.48031e-005 0.000133858 7.87402e-005 0.000129921 8.66142e-005 0.000122047 9.44882e-005 0.00011811 9.84252e-005 0.000110236 0.000102362 0.000106299 0.000106299 9.84252e-005 0.000114173 9.44882e-005 0.000114173 9.05512e-005 0.000122047 7.87402e-005 0.000125984 7.87402e-005 0.000125984 6.69291e-005 0.000133858 6.29921e-005 0.000133858 5.51181e-005 0.000137795 5.11811e-005 0.000137795 4.33071e-005 0.000141732 3.54331e-005 0.000145669 3.14961e-005 0.000145669 2.3622e-005 0.000149606 1.5748e-005 0.000145669 7.87402e-006 0.000149606 0 0.000149606 -3.93701e-006 0.000153543 -1.1811e-005 0.000149606 -1.9685e-005 0.000149606 -2.75591e-005 0.000149606 -3.54331e-005 0.000149606 -4.33071e-005 0.000149606 -5.11811e-005 0.000145669 -5.90551e-005 0.000145669 -6.69291e-005 0.000145669z"/>
   </g>
   <path class="fil6" d="M6.37375 5.47063l0.000464567 0c0.00407087,-0.026063 0.0349055,-0.0463307 0.0723386,-0.0463307 0.0374331,0 0.0682677,0.0202677 0.0723425,0.0463307l0.00046063 0 0 0.00587008 0 0.707421 -0.145606 0 0 -0.713291z"/>
   <polygon class="fil11 str9" points="6.18325,5.55206 5.50966,5.55206 5.50966,5.89843 6.18325,5.89843 "/>
   <polygon class="fil9 str3" points="6.16708,5.56714 5.52583,5.56714 5.52583,5.88335 6.16708,5.88335 "/>
   <path class="fil0" d="M8.8265 3.99865c0.002,0.0448346 0.00318898,0.0898819 0.00318898,0.135209 0,0.0228819 -0.000350394,0.045685 -0.000862205,0.0684331l-0.000437008 0.017189c-0.000614173,0.0226929 -0.00142913,0.0453346 -0.00258268,0.0678937l0 7.08661e-005c-0.00116142,0.0225787 -0.0026378,0.0450709 -0.00428346,0.0675157l-0.00129528 0.0169488c-0.00169291,0.0217047 -0.0035748,0.0433622 -0.00575591,0.0649291l-0.000366142 0.0036063c-0.0022126,0.0216457 -0.00472835,0.0432165 -0.00740157,0.0647244l-0.00218898 0.0172677c-0.00269291,0.0208622 -0.00558268,0.0416614 -0.00872835,0.062378l-0.000937008 0.00618898c-0.00318898,0.0207441 -0.00665354,0.0413898 -0.0102756,0.0619882l-0.0031811 0.0178228c-0.00366535,0.0202598 -0.00751181,0.0404567 -0.0116063,0.0605669l-0.00135827 0.00670472c-0.00415354,0.0201693 -0.00855906,0.0402323 -0.0131142,0.0602441l-0.00430709 0.0186496c-0.00458268,0.0196181 -0.00933465,0.039189 -0.0143189,0.0586614l-0.00166535 0.00653937c-0.00506693,0.0195906 -0.010378,0.0390709 -0.0158307,0.0585 -0.00187008,0.00667717 -0.00377559,0.0133425 -0.00568504,0.02 -0.00516142,0.0179528 -0.0104685,0.0358425 -0.0159646,0.0536496l-0.00380315 0.0122638c-0.00565354,0.0180354 -0.0114921,0.0359843 -0.0174803,0.053874 -0.0023189,0.00694094 -0.00466929,0.0138661 -0.00704331,0.0207835 -0.00577953,0.0168976 -0.0116969,0.0337362 -0.0177874,0.0504961l-0.00526772 0.0144449c-0.00632283,0.0171299 -0.0128228,0.0341693 -0.0194528,0.0511496 -0.00277953,0.00712992 -0.00559055,0.0142441 -0.00842913,0.0213543 -0.00607874,0.0152323 -0.0122756,0.0304134 -0.0185984,0.0455236 -0.0029252,0.00698425 -0.00585827,0.0139528 -0.00883071,0.0209094 -0.00648031,0.0151614 -0.0130866,0.0302559 -0.0198071,0.0452835 -0.00337402,0.0075315 -0.00676772,0.0150472 -0.0101969,0.0225433 -0.00627165,0.0137087 -0.0126496,0.0273583 -0.019122,0.0409567 -0.00422835,0.00888189 -0.00848819,0.0177283 -0.0127953,0.0265591 -0.00648819,0.0132835 -0.0130512,0.0265157 -0.0197283,0.039689 -0.00409055,0.00806693 -0.0082126,0.0161181 -0.012374,0.0241299 -0.00616535,0.0118819 -0.0124134,0.0237087 -0.0187283,0.0355039 -0.00572835,0.0106969 -0.0115157,0.0213622 -0.0173701,0.0319803 -0.00638583,0.0115866 -0.0128307,0.0231299 -0.0193622,0.0346181 -0.00481102,0.00845276 -0.00964961,0.0168898 -0.0145472,0.0252913 -0.00594882,0.0102047 -0.0119724,0.0203701 -0.0180276,0.0305039 -0.00753543,0.0125906 -0.0151457,0.0251299 -0.0228622,0.0376024 -0.006,0.00969291 -0.0120039,0.019378 -0.0181063,0.0289961 -0.0056811,0.00895669 -0.0114016,0.0178976 -0.0171811,0.0267874 -0.00545276,0.00837402 -0.0109567,0.0167087 -0.0164803,0.0250354 -0.00957874,0.0144291 -0.0192756,0.0287874 -0.0290945,0.0430394 -0.00541732,0.0078622 -0.0108307,0.0157362 -0.0163268,0.0235472 -0.00658268,0.00935827 -0.0132047,0.0186929 -0.0199055,0.0279685 -0.00505118,0.007 -0.0101496,0.0139567 -0.015252,0.0209134 -0.0114685,0.0156339 -0.0230787,0.0311496 -0.0348386,0.0465512 -0.00483858,0.00634252 -0.00966929,0.012685 -0.0145591,0.0189843 -0.00749606,0.00964567 -0.0150354,0.0192598 -0.0226496,0.0287992 -0.00440945,0.0055315 -0.0088622,0.0110197 -0.0133071,0.0165236 -0.0136102,0.0168465 -0.0273976,0.0335394 -0.0413622,0.0500787 -0.00425591,0.00504331 -0.00849606,0.0101063 -0.0127874,0.015122 -0.00824016,0.00962205 -0.0165236,0.0191969 -0.0248898,0.0287047 -0.00404724,0.0046063 -0.0081378,0.00919291 -0.0122087,0.0137756 -0.0158228,0.0177953 -0.0318465,0.0353976 -0.0480787,0.052815 -0.00317323,0.00339764 -0.00633465,0.00683858 -0.00952362,0.0102323 -0.00940157,0.00999213 -0.0188661,0.0199173 -0.0284055,0.0297638l-0.00881102 0.00902756c-0.0182677,0.0187283 -0.0367717,0.0372165 -0.0555236,0.0554567l-0.00724016 0.00707087c-0.0101654,0.00983465 -0.0203976,0.0195827 -0.0307126,0.0292638l-0.00801181 0.00745669c-0.0201614,0.0188031 -0.0405748,0.0373425 -0.061252,0.0555906l-0.00469291 0.00416535c-0.0110157,0.00967717 -0.0220945,0.0192677 -0.0332559,0.0287795l-0.00652362 0.00551969c-0.0220354,0.018689 -0.0443386,0.0370748 -0.0669213,0.0551339l-0.00267323 0.00216142c-0.0118583,0.00945669 -0.0237992,0.0188307 -0.0358071,0.0281063l-0.00438583 0.00336614c-0.0235315,0.018122 -0.0473346,0.0359173 -0.0714134,0.0533465l-0.00263386 0.00191732c-0.0123189,0.00889764 -0.0247047,0.0176929 -0.0371732,0.0264094l-0.00445276 0.00308661c-0.0248307,0.0172992 -0.0499213,0.0342362 -0.0752992,0.0507913l-0.00117717 0.000775591c-0.0129252,0.00842126 -0.0259252,0.016748 -0.0389882,0.0249685l-0.00398031 0.00248819c-0.0259685,0.0162992 -0.0522008,0.0322244 -0.0787008,0.0477402l-0.000519685 0.000299213c0.126205,-0.225555 0.290406,-0.535787 0.347283,-0.642614 0.199484,-0.374646 0.217528,-0.505657 0.0416417,-0.912071 -0.132079,-0.281748 -0.246846,-0.583661 -0.351957,-0.896839 -0.0268307,-0.071126 -0.0340118,-0.137465 -0.0309331,-0.199957 0.00602362,-0.122205 0.0734213,-0.128496 0.141189,-0.0858858 0.0275827,0.0173425 0.0565276,0.0417717 0.078811,0.0718071 0.0621299,0.0837165 0.145453,0.310921 0.197252,0.417937 0.059878,0.123713 0.116764,0.234575 0.177354,0.297161 0.0331575,0.0358504 0.0603661,0.025311 0.066811,-0.0061811 0.0214803,-0.105059 -0.0685709,-0.224591 0.0276929,-0.390252 0.0722283,-0.124291 0.265902,-0.159354 0.348626,-0.0380354 0.0251811,0.0369252 0.0358937,0.087937 0.0340709,0.155882 -0.00197244,0.073185 -0.0667047,0.30398 0.00528346,0.332976 0.0629173,0.0253425 0.112402,-0.250449 0.117969,-0.28628 0.0470197,-0.302512 0.0239409,-0.603815 0.0621811,-0.662071 0.0187126,-0.0285118 0.044122,-0.0420945 0.0710984,-0.0414528 0.0548031,0.00131496 0.116122,0.0613346 0.141303,0.174173z"/>
   <path class="fil12" d="M8.00771 6.1902c-0.434181,0.456197 -1.01137,0.774898 -1.65963,0.884685 -0.228909,0.0164528 -0.463823,-0.00730709 -0.694878,-0.0861929 0.18913,-0.072126 0.353193,-0.136236 0.490972,-0.19911 0.362815,-0.165563 0.451094,-0.252996 0.552008,-0.656657 0.0623898,-0.28563 0.149209,-0.576429 0.249669,-0.870102 0.0206102,-0.0683898 0.0531417,-0.121984 0.0911378,-0.16685 0.0742874,-0.0877244 0.128161,-0.0539213 0.154378,0.0165709 0.0106772,0.028689 0.0183189,0.0634528 0.0177874,0.0985906 -0.0014685,0.0979331 -0.0690669,0.315031 -0.0915551,0.424461 -0.0259921,0.126488 -0.0468661,0.241693 -0.0374134,0.322992 0.00425984,0.0456772 0.0305827,0.0533622 0.053374,0.0335472 0.0760315,-0.0661142 0.077122,-0.206717 0.243563,-0.275327 0.124874,-0.0514764 0.28939,0.0329843 0.281811,0.17074 -0.00230709,0.0419409 -0.0234409,0.0861142 -0.0636142,0.13576 -0.0432756,0.0534764 -0.223386,0.188681 -0.186244,0.251433 0.0324646,0.0548465 0.226906,-0.122646 0.251524,-0.146193 0.207862,-0.198835 0.362736,-0.436795 0.424539,-0.458421 0.030248,-0.0105827 0.0656693,-0.0131378 0.0767205,0.00968504 0.0601772,0.12426 -0.00348819,0.312213 -0.154154,0.51039z"/>
   <path class="fil1" d="M3.61701 6.12549c-0.468823,-0.52698 -0.753787,-1.22115 -0.753787,-1.98198 0,-0.796642 0.312287,-1.52031 0.821075,-2.05537 0.203362,-0.0634921 0.304909,0.0304764 0.195319,0.195335 -0.207177,0.177319 -0.383646,0.388594 -0.506413,0.633063 -0.0700394,0.161657 -0.0437323,0.226291 -0.0296535,0.238004 0.0138976,0.0115748 0.0627677,0.0146772 0.11278,-0.129386 0.033248,-0.16628 0.0978701,-0.254346 0.182902,-0.291228 0.204283,-0.0885984 0.39315,0.088752 0.349362,0.287988 -0.0333268,0.151602 -0.128343,0.183953 -0.230531,0.265858 -0.0996417,0.0798701 -0.0565591,0.140677 0.0438504,0.122504 0.216547,-0.0391969 0.722815,-0.28372 0.833646,-0.32598 0.118181,-0.0431929 0.208724,-0.0525079 0.231437,-0.0118465 0.0169252,0.0303071 0.0167874,0.0680197 0.00571654,0.103854 -0.0235315,0.0761654 -0.100484,0.133622 -0.162362,0.179142 -0.119343,0.0877835 -0.26513,0.162882 -0.329539,0.203606 -0.449614,0.284276 -0.980563,0.520244 -1.0995,1.1017 -0.0768228,0.375555 -0.0119803,0.973201 0.335697,1.46474z"/>
   <path class="fil4" d="M6.86792 6.93757c-0.31865,0.116122 -0.66265,0.17952 -1.02146,0.17952 -0.695449,0 -1.33531,-0.237976 -1.84261,-0.636929 0.896252,0.229094 1.27826,-0.015 2.15341,-0.718945 0.0640827,-0.0438346 0.126925,-0.0425433 0.16115,-0.0107795 0.0885472,0.0821181 -0.0654213,0.248949 -0.124228,0.305197 -0.0498701,0.0476929 -0.553252,0.505756 -0.417425,0.58411 0.0600551,0.0346457 0.179217,-0.181524 0.323988,-0.20963 0.142303,-0.027626 0.255799,0.116854 0.199287,0.245303 -0.00834252,0.0189724 -0.0206575,0.0373858 -0.0373346,0.0551969 -0.0555748,0.0593819 -0.106839,0.0747165 -0.17761,0.102343 -0.0246693,0.00963386 -0.0710669,0.0311811 -0.0550984,0.0648583 0.0291024,0.0613504 0.160043,0.0256969 0.180669,0.0225433 0.138524,-0.021252 0.338531,-0.100173 0.49785,-0.0854528 0.094,0.0052126 0.15198,0.0484921 0.159425,0.102665z"/>
   <path class="fil0" d="M4.68025 6.88046c-1.06804,-0.454071 -1.81702,-1.51284 -1.81702,-2.74661 0,-0.0693307 0.00256299,-0.138051 0.00721654,-0.206197 0.0547874,-0.0502441 0.127539,-0.0503937 0.18628,-0.0138307 0.123425,0.076811 0.0969646,0.213661 0.095252,0.337744 -0.00168504,0.121378 -0.00205118,0.239961 0.00196063,0.349079 0.00225591,0.0611693 -0.00096063,0.430453 0.120591,0.389091 0.0342913,-0.0116654 0.0598898,-0.061937 0.054,-0.137386 0.00525984,-0.141752 0.0403622,-0.232122 0.0948228,-0.282681 0.106791,-0.0991535 0.310177,-0.0435157 0.356768,0.0873661 0.00985827,0.0277126 0.012815,0.0586457 0.0088937,0.092685 -0.00186614,0.0161299 -0.00525984,0.0329646 -0.0102087,0.0504646 -0.0164724,0.0582677 -0.106087,0.190996 -0.0607205,0.226343 0.00945276,0.00735827 0.0297874,0.0093937 0.0565591,-0.0046063 0.0415236,-0.021689 0.112929,-0.105567 0.148575,-0.142362 0.104469,-0.120154 0.20948,-0.254783 0.315929,-0.371559 0.0659921,-0.0723898 0.284484,-0.317232 0.396701,-0.24324 0.120957,0.0797402 -0.019378,0.27902 -0.0690669,0.358008 -0.144004,0.228874 -0.382961,0.555677 -0.496098,0.836614 -0.166535,0.529142 -0.0359409,1.0042 0.609571,1.42107z"/>
   <path class="fil13" d="M6.48739 1.78577l0.0849764 0.0202126c-0.00465354,0.0293425 -0.00159843,0.0530472 0.00913386,0.0712283 0.0106693,0.0180591 0.0287795,0.0315906 0.0544843,0.040437 0.0271654,0.00935433 0.0496969,0.0106929 0.0674134,0.00382283 0.0177835,-0.00672835 0.0293307,-0.0177795 0.0346299,-0.0331732 0.00341732,-0.00993307 0.00338189,-0.019311 -7.87402e-005,-0.0282402 -0.00333465,-0.00899213 -0.0113858,-0.0185079 -0.0241535,-0.0285748 -0.00862598,-0.00688976 -0.0291417,-0.0207047 -0.0612795,-0.0415787 -0.0414291,-0.0267953 -0.0684094,-0.0515512 -0.0809882,-0.0741772 -0.0177953,-0.0318386 -0.0209921,-0.064311 -0.00959843,-0.0974173 0.00735039,-0.0213346 0.0202283,-0.0391142 0.0387087,-0.0535591 0.0184488,-0.0143504 0.0407402,-0.0224646 0.0667913,-0.0243858 0.0261063,-0.00179528 0.0551417,0.00275197 0.0872835,0.0138189 0.0525906,0.0181063 0.0880669,0.043185 0.10674,0.0753228 0.0185354,0.0321929 0.0219016,0.0676654 0.0100197,0.106606l-0.0857087 -0.025378c0.00380709,-0.0227598 0.00135039,-0.0409252 -0.00730709,-0.0543701 -0.00863386,-0.0135315 -0.0248386,-0.0243504 -0.0486024,-0.0325236 -0.0245394,-0.00845276 -0.0455315,-0.010122 -0.0628504,-0.00475984 -0.0111654,0.00334252 -0.0186339,0.0104685 -0.0223543,0.0212756 -0.00341732,0.00993701 -0.00215354,0.0198465 0.00380709,0.0297441 0.0075315,0.0126142 0.0302165,0.0308819 0.0679882,0.0546772 0.0377441,0.0238858 0.0646772,0.0443819 0.0807992,0.0614764 0.0160787,0.017189 0.0266024,0.0366102 0.0315945,0.0584843 0.00489764,0.0218307 0.00280315,0.0459528 -0.00628346,0.0723386 -0.00824803,0.0239528 -0.0226102,0.0441732 -0.043126,0.0604252 -0.020563,0.0163425 -0.0447126,0.0254449 -0.0725512,0.0271969 -0.0278661,0.00183858 -0.0599882,-0.00356299 -0.096315,-0.0160709 -0.0528819,-0.0182047 -0.0892992,-0.0443543 -0.10922,-0.0785591 -0.0199173,-0.0342008 -0.0245945,-0.0756811 -0.0139528,-0.124299zm0.445874 0.340949l0.178157 -0.321409 -0.114768 -0.0636142 0.0363031 -0.0654843 0.307449 0.170425 -0.0362992 0.0654843 -0.114496 -0.0634685 -0.178161 0.321409 -0.078185 -0.0433425zm0.241354 0.137291l0.284339 -0.338866 0.102417 0.0859331 -0.132516 0.28274 0.254728 -0.180193 0.102642 0.086126 -0.284339 0.33887 -0.0635118 -0.0532874 0.223839 -0.266756 -0.291142 0.210276 -0.065878 -0.0552795 0.156776 -0.323024 -0.223839 0.266756 -0.0635157 -0.0532953zm0.47735 0.238567l0.0613543 0.0621732c-0.0194961,0.0224134 -0.0294685,0.0441339 -0.0300079,0.0652441 -0.000515748,0.0209685 0.00767323,0.0420315 0.0247795,0.0631614 0.0180866,0.0223346 0.0364803,0.0354055 0.0551496,0.0389685 0.0186496,0.00372441 0.0342992,0.00046063 0.0469449,-0.00977953 0.00816142,-0.00661417 0.0131024,-0.0145906 0.0148976,-0.0239921 0.00193701,-0.0093937 0.000153543,-0.0217283 -0.00534252,-0.0370315 -0.00366142,-0.0104173 -0.0137362,-0.0330079 -0.0299331,-0.0677362 -0.0209331,-0.0446732 -0.0306969,-0.0799724 -0.029378,-0.105823 0.00179134,-0.0364291 0.0162874,-0.0656693 0.0434961,-0.0877008 0.0175315,-0.0141969 0.037874,-0.0224528 0.0612087,-0.0249134 0.0232362,-0.00238583 0.0464488,0.00254724 0.0695551,0.0147165 0.0230945,0.012311 0.0453031,0.0315591 0.0666969,0.0579724 0.0350039,0.0432244 0.0517992,0.0832953 0.0506102,0.120437 -0.00134252,0.0371299 -0.0172835,0.0689961 -0.0479882,0.0957244l-0.059248 -0.0669449c0.0152913,-0.0172756 0.0228307,-0.0339921 0.0226142,-0.0499764 -0.000145669,-0.0160472 -0.00816142,-0.033815 -0.0239764,-0.0533386 -0.0163346,-0.0201732 -0.0332559,-0.0327126 -0.0507795,-0.0373386 -0.011248,-0.00308268 -0.0213543,-0.000992126 -0.0302362,0.00619685 -0.00816142,0.00661024 -0.0123425,0.015685 -0.0125276,0.0272362 -0.000299213,0.014685 0.00925591,0.0422087 0.0286772,0.0823976 0.0193504,0.0402598 0.0313268,0.0719094 0.0359488,0.0949488 0.00452362,0.0231024 0.00315748,0.0451496 -0.00419685,0.0663386 -0.00741732,0.0211181 -0.0219764,0.0404567 -0.0436693,0.0580276 -0.019685,0.0159409 -0.0425827,0.0254803 -0.0685945,0.0283819 -0.0260945,0.00296457 -0.0513976,-0.00211417 -0.0759291,-0.015378 -0.0246102,-0.0132087 -0.0489882,-0.0348071 -0.0731693,-0.0646654 -0.0351969,-0.0434646 -0.0522244,-0.0849449 -0.0509961,-0.124504 0.00123228,-0.0395591 0.0192441,-0.0772126 0.0540394,-0.112803zm0.426913 0.608764l0.0179764 0.0889488c-0.048689,0.0118031 -0.0907244,0.00989764 -0.12624,-0.00573622 -0.035378,-0.0155984 -0.0646732,-0.0442283 -0.0876969,-0.0857598 -0.0284567,-0.0513386 -0.034311,-0.103331 -0.0175945,-0.155807 0.0168071,-0.0525354 0.0556299,-0.0957244 0.116437,-0.129421 0.0644094,-0.0357087 0.123642,-0.0467559 0.17774,-0.0332913 0.0540039,0.0135118 0.0960591,0.0473189 0.126122,0.101547 0.0262087,0.0472913 0.0335669,0.0935 0.0219331,0.138567 -0.00670079,0.0268031 -0.0231969,0.0531299 -0.0492874,0.0791339l-0.0613543 -0.0671417c0.0175906,-0.0156378 0.0281417,-0.0339724 0.031685,-0.0550079 0.0035748,-0.0209488 -0.000444882,-0.0417953 -0.0119291,-0.0625157 -0.0158819,-0.0286417 -0.0390748,-0.0462795 -0.0695906,-0.0526811 -0.0304291,-0.00645276 -0.0686969,0.00310236 -0.114819,0.0286693 -0.0489252,0.0271142 -0.078937,0.0551772 -0.0898622,0.084315 -0.0110787,0.0290984 -0.00875984,0.0577165 0.00682283,0.0858268 0.0115315,0.0208071 0.028,0.0350039 0.0495315,0.0426102 0.0214409,0.00766929 0.0481929,0.00685433 0.080126,-0.00225591zm0.155425 0.459772l-0.000909449 0.0907402c-0.0500787,0.00142126 -0.0907992,-0.0091811 -0.122283,-0.0318622 -0.0313661,-0.0226102 -0.054063,-0.0567087 -0.0679449,-0.102114 -0.0171693,-0.0561378 -0.0120827,-0.108205 0.0151811,-0.156063 0.0273543,-0.0478937 0.074315,-0.082063 0.140791,-0.10239 0.0704331,-0.0215315 0.130665,-0.0200276 0.180783,0.0043937 0.0500118,0.0244449 0.0841181,0.0662598 0.102252,0.125547 0.0158071,0.0517126 0.0133898,0.0984409 -0.00735827,0.14011 -0.012126,0.024815 -0.0337283,0.0471417 -0.0646614,0.0671535l-0.0460551 -0.0784331c0.0204606,-0.0116417 0.0345984,-0.027378 0.0424291,-0.0472205 0.00785433,-0.0197441 0.00825591,-0.0409685 0.00132677,-0.063626 -0.00956693,-0.0313189 -0.0285945,-0.0533976 -0.0571142,-0.0660039 -0.0284213,-0.0126378 -0.0678386,-0.0112441 -0.118268,0.00416929 -0.0534921,0.0163583 -0.088689,0.0375669 -0.105429,0.0637913 -0.0168819,0.0261575 -0.0205709,0.0546378 -0.0111693,0.085374 0.00695669,0.022752 0.0201102,0.0400551 0.0395906,0.0519764 0.019378,0.0119606 0.0457126,0.0167205 0.0788386,0.0144567z"/>
   <polygon class="fil2 str10" points="4.1146,2.37998 4.22117,2.36748 4.24226,2.26219 4.28708,2.35975 4.39365,2.34724 4.3149,2.42008 4.35973,2.51763 4.26606,2.46503 4.18704,2.53789 4.20807,2.43261 "/>
   <polygon class="fil2 str10" points="4.53553,2.02961 4.64207,2.04227 4.68711,1.94479 4.70798,2.05009 4.81453,2.06275 4.72098,2.11525 4.74186,2.22056 4.66302,2.14758 4.5692,2.20005 4.61417,2.10256 "/>
   <polygon class="fil2 str10" points="5.03792,1.81333 5.14004,1.84625 5.20298,1.75924 5.20321,1.8666 5.30533,1.89952 5.20344,1.93304 5.20368,2.0404 5.14034,1.95363 5.03819,1.98707 5.10106,1.90005 "/>
  </g>
 </g>
</svg>
