<svg xmlns="http://www.w3.org/2000/svg" version="1.1" xmlns:xlink="http://www.w3.org/1999/xlink" xmlns:svgjs="http://svgjs.dev/svgjs" width="1500" height="1500" viewBox="0 0 1500 1500"><rect width="1500" height="1500" fill="#ffffff"></rect><g transform="matrix(0.6666666666666666,0,0,0.6666666666666666,249.39436519522388,553.7561892138758)"><svg viewBox="0 0 396 155" data-background-color="#ffffff" preserveAspectRatio="xMidYMid meet" height="587" width="1500" xmlns="http://www.w3.org/2000/svg" xmlns:xlink="http://www.w3.org/1999/xlink"><g id="tight-bounds" transform="matrix(1,0,0,1,0.24008861730862918,0.2285962653728717)"><svg viewBox="0 0 395.52 154.5425361015999" height="154.5425361015999" width="395.52"><g><svg viewBox="0 0 395.52 154.5425361015999" height="154.5425361015999" width="395.52"><g transform="matrix(1,0,0,1,0,77.16853235995178)"><svg viewBox="0 0 395.52 77.37400374164811" height="77.37400374164811" width="395.52"><g id="textblocktransform"><svg viewBox="0 0 395.52 77.37400374164811" height="77.37400374164811" width="395.52" id="textblock"><g><svg viewBox="0 0 395.52 77.37400374164811" height="77.37400374164811" width="395.52"><path d="M394.594 16.595C392.735 8.564 387.435 6.331 387.435 6.331 371.165-1.941 350.86-0.158 332.619 1.03 300.414 1.079 268.339 2.845 236.208 3.793 168.767 3.938 100.749 1.56 33.643 7.423 27.339 9.222-6.54 7.777 1.121 17.623 3.129 21.719 10.456 26.265 10.232 30.024 11.236 30.682 12.631 29.172 13.226 30.12 15.309 32.674 18.711 31.469 21.501 32.979 17.614 37.011 20.403 40.368 23.062 43.886 18.377 44.802 12.371 44.368 9.675 47.404 9.396 49.604 7.89 49.187 6.235 49.09 5.026 49.026 2.59 49.267 2.999 49.958 4.394 52.319-1.594 53.684 2.162 55.997-0.422 58.503 3.948 60.672 3.353 63.386 3.278 63.932 3.687 64.398 4.338 64.527 7.22 65.217 3.018 66.567 3.464 68.028 33.029 78.019 65.104 71.112 95.394 75.706 103.259 72.494 97.346 76.847 100.489 76.172 102.943 75.385 104.728 78.646 107.499 76.799 107.927 76.269 107.276 75.016 108.8 75.257 109.6 75.385 110.307 75.353 110.418 74.614 110.586 73.506 109.117 74.196 108.726 73.618 112.947 70.695 111.906 77.65 115.866 77.361 115.68 76.509 114.528 75.289 116.889 75.449 119.232 74.229 119.306 73.217 121.389 75.963 121.463 76.558 121.835 76.975 122.43 77.264 128.938 74.277 135.409 78.325 142.233 76.975 146.417 75.497 150.433 77.778 154.672 77.216 156.16 76.766 157.666 75.963 159.098 77.313 176.632 77.602 195.319 76.397 211.943 77.361 256.364 75.562 303.836 78.1 350.674 75.722 361.719 74.807 373.192 73.506 383.958 72.462 383.958 72.462 392.679 69.602 392.679 56.752S394.538 45.508 394.817 35.276C395.096 25.044 396.398 24.627 394.538 16.595Z" opacity="1" fill="#000000" data-fill-palette-color="tertiary"></path><g transform="matrix(1,0,0,1,55.76832,26.230666666666668)"><svg width="283.98335999999995" viewBox="1.07 -33.2 394.6 34.620000000000005" height="24.91267040831477" data-palette-color="#ffffff"><path d="M18.02-12.6L18.02-12.6Q23.39-12.6 23.39-9.86L23.39-9.86Q23.39-7.81 20.41-5.08L20.41-5.08Q15.97-1.03 8.45 1.42L8.45 1.42Q8.11 1.42 7.69 0.73 7.28 0.05 7.06-0.32 6.84-0.68 6.74-0.78L6.74-0.78Q12.35-2.64 15.97-5.27L15.97-5.27Q18.41-7.03 18.41-8.15 18.41-9.28 15.53-9.28 12.65-9.28 7.08-7.91L7.08-7.91Q4.54-8.01 2.69-9.72L2.69-9.72Q1.07-11.23 1.07-12.77 1.07-14.31 1.95-15.6 2.83-16.89 4.3-18.02 5.76-19.14 7.71-20.07L7.71-20.07Q12.5-22.36 17.63-22.36L17.63-22.36Q19.14-22.36 20.56-22.07L20.56-22.07Q21.73-22.07 21.92-21.04 22.12-20.02 22.12-17.68L22.12-17.68Q19.24-18.99 15.63-18.99L15.63-18.99Q11.13-18.99 8.2-17.19L8.2-17.19Q5.18-15.43 5.08-12.6L5.08-12.6Q5.08-11.23 7.08-11.23L7.08-11.23 10.64-11.62Q15.23-12.6 18.02-12.6ZM45.6-8.11L45.6-8.11Q41.94-2.34 35.84-0.98L35.84-0.98Q34.42-0.68 33.27-0.68 32.13-0.68 31.37-0.71 30.61-0.73 29.68-0.93 28.76-1.12 27.98-1.56L27.98-1.56Q26.17-2.59 26.17-4.44L26.17-4.44Q25.97-5.32 25.97-6.42 25.97-7.52 26.46-9.33 26.95-11.13 28.24-13.23 29.54-15.33 31.39-17.09L31.39-17.09Q35.25-20.8 39.74-21.88L39.74-21.88Q41.06-22.17 42.16-22.17 43.26-22.17 44.14-22.02L44.14-22.02Q46.97-22.02 47.95-18.16L47.95-18.16Q48.58-15.72 48.7-11.35 48.83-6.98 48.95-4.61 49.07-2.25 49.56-0.29L49.56-0.29 46.68-0.29Q46.48-1.61 46.38-2.64 46.29-3.66 46.19-4.54L46.19-4.54Q45.94-6.59 45.6-8.11ZM45.41-15.67L45.41-15.67Q45.41-18.51 42.62-18.51L42.62-18.51Q42.28-18.55 41.94-18.55L41.94-18.55Q38.38-18.55 34.42-15.14L34.42-15.14Q32.57-13.57 31.25-11.62L31.25-11.62Q29.29-8.84 29.29-6.64L29.29-6.64Q29.29-3.76 32.61-3.22L32.61-3.22Q37.01-3.32 41.01-7.23L41.01-7.23Q42.72-8.94 43.85-10.94L43.85-10.94Q45.41-13.62 45.41-15.67ZM70.84-7.71L70.89-10.69Q70.89-16.5 70.26-19.24L70.26-19.24Q70.65-19.97 69.09-19.97L69.09-19.97Q67.43-19.97 64.79-19.14 62.15-18.31 60.49-17.48L60.49-17.48Q56.54-15.58 56.1-13.77L56.1-13.77 56.1-0.49 52.83-0.49Q52.19-2.15 52.19-9.81L52.19-9.81Q52.19-16.65 52.46-19.87 52.73-23.1 52.88-23.54L52.88-23.54Q54.15-24.37 54.93-24.37L54.93-24.37Q56.15-24.37 56.15-21.48L56.15-21.48Q56.15-20.36 56.03-19.31 55.9-18.26 55.9-17.87L55.9-17.87Q63.81-23.68 68.16-23.68L68.16-23.68Q73.09-23.68 73.77-15.72L73.77-15.72Q74.07-12.94 74.07-8.01L74.07-8.01 74.02-4.15Q74.02-2 74.12 0L74.12 0Q73.63 0.29 73.33 0.29L73.33 0.29Q73.19 0.24 72.7 0.15 72.21 0.05 71.43 0L71.43 0Q70.94-1.95 70.89-3.98 70.84-6.01 70.84-7.71L70.84-7.71ZM84.22-4.69L84.22-4.69 84.32-12.5Q84.32-14.36 83.98-15.67L83.98-15.67 76.41-15.67 76.31-19.04 83.64-19.04 83.64-31.64Q83.78-32.08 84.22-32.52L84.22-32.52Q84.9-33.2 85.37-33.2 85.83-33.2 86.17-33.11 86.52-33.01 86.91-32.42L86.91-32.42Q87.69-29.2 87.69-22.71L87.69-22.71Q87.69-21.09 87.83-19.53L87.83-19.53Q89.4-19.73 90.96-19.73L90.96-19.73Q90.96-19.73 93.5-19.73L93.5-19.73Q94.43-19.73 95.21-19.82L95.21-19.82 95.06-16.31 87.93-16.5 88.18 0.34Q87.3 0.73 86.66 0.73L86.66 0.73Q84.22 0.73 84.22-4.69ZM120.01-0.68L120.01-0.68Q119.57 0.15 117.74 0.15 115.91 0.15 115.91-1.17L115.91-1.17Q115.91-6.93 115.66-9.08L115.66-9.08Q115.22-13.82 113.81-14.16L113.81-14.16Q110.29-14.84 108.07-14.84 105.85-14.84 104.41-13.5 102.97-12.16 102.21-9.06 101.45-5.96 101.11-0.34L101.11-0.34 97.35-0.34Q97.45-3.13 97.45-5.52 97.45-7.91 97.35-11.21 97.26-14.5 97.11-18.41L97.11-18.41Q96.87-22.9 96.87-26 96.87-29.1 97.26-31.69L97.26-31.69Q97.74-32.62 98.67-32.62L98.67-32.62Q99.79-32.62 100.43-31.81 101.06-31.01 101.11-30.37L101.11-30.37 100.87-22.31Q100.87-17.77 101.31-15.53L101.31-15.53Q105.7-18.46 110.39-18.46L110.39-18.46Q111.9-18.46 113.61-18.21L113.61-18.21Q117.28-16.31 118.4-14.16L118.4-14.16Q118.94-13.04 119.08-11.77 119.23-10.5 119.28-8.89L119.28-8.89Q119.57-3.32 120.01-0.68ZM123.03-9.28L123.03-9.28Q123.03-15.04 128.01-18.55L128.01-18.55Q131.97-21.34 137.54-21.92L137.54-21.92Q137.83-21.92 138.9-21.92 139.98-21.92 141.78-21.29L141.78-21.29Q145.79-19.92 147.25-16.46L147.25-16.46Q147.84-15.09 147.84-14.14 147.84-13.18 147.79-12.79L147.79-12.79Q147.79-6.69 143.15-3.17L143.15-3.17Q138.85 0.05 132.41 0.05L132.41 0.05Q127.77 0.05 125.4-2.1 123.03-4.25 123.03-9.28ZM126.4-8.11L126.4-8.11Q126.4-5.08 128.01-4L128.01-4Q129.24-3.22 132.12-3.22 135-3.22 137.19-3.66 139.39-4.1 141.1-5.18L141.1-5.18Q144.76-7.52 144.76-12.45L144.76-12.45Q144.76-15.38 143.2-17.24L143.2-17.24Q141.49-19.24 138.71-19.24L138.71-19.24Q136.8-18.9 134.88-18.51 132.95-18.12 131.24-16.99L131.24-16.99Q127.53-14.6 126.4-8.11ZM153.99-0.78L153.99-0.78Q151.99 0.05 151.33 0.05 150.67 0.05 150.42-0.1 150.18-0.24 149.89-0.78L149.89-0.78Q149.89-2.39 150.01-4.83 150.13-7.28 150.23-10.06 150.33-12.84 150.33-15.67 150.33-18.51 150.03-20.85L150.03-20.85Q150.03-22.41 152.13-22.41L152.13-22.41Q152.62-22.41 152.89-20.65 153.16-18.9 153.28-17.92 153.4-16.94 153.5-16.5L153.5-16.5Q154.77-18.8 158.53-20.12L158.53-20.12Q160.53-20.75 162.29-20.75 164.05-20.75 165.39-20.34 166.73-19.92 167.69-18.82 168.64-17.72 168.64-15.92L168.64-15.92Q169.91-18.31 174.35-20.21L174.35-20.21Q178.4-22.02 181.63-22.02L181.63-22.02Q186.26-22.02 186.17-18.51L186.17-18.51 187.19-0.34Q187.19-0.1 185.78 0L185.78 0Q183.04 0.2 183.04-0.49L183.04-0.49Q182.99-1.46 182.99-2.44L182.99-2.44 183.24-10.3Q183.24-15.82 182.16-19.04L182.16-19.04Q178.94-18.8 177.21-17.99 175.47-17.19 174.15-15.99 172.84-14.79 171.81-12.79L171.81-12.79Q169.52-8.3 169.52-0.88L169.52-0.88Q169.22 0.15 167.61 0.15L167.61 0.15Q166.54 0.15 165.85-0.22 165.17-0.59 165.32-0.88L165.32-0.88Q166.24-6.05 166.24-8.94L166.24-8.94Q166.24-11.23 165.78-13.31 165.32-15.38 164.63-18.07L164.63-18.07Q157.6-18.07 155.16-12.45L155.16-12.45Q154.09-9.96 153.96-7.79 153.84-5.62 153.84-4.08 153.84-2.54 153.99-0.78ZM228.62-5.15Q230.6-5.96 232.5-6.64 234.4-7.32 236.14-7.32 237.87-7.32 237.87-6.25L237.87-6.25Q237.87-6.01 237.75-5.49 237.63-4.98 236.43-4.27 235.23-3.56 233.5-2.93 231.77-2.29 229.72-1.76 227.67-1.22 225.71-0.83L225.71-0.83Q221.66 0 219.95 0 218.24 0 216.26-0.39 214.29-0.78 212.58-1.66L212.58-1.66Q208.62-3.71 208.62-7.71L208.62-7.71Q208.62-8.01 208.62-8.89 208.62-9.77 209.36-11.4 210.09-13.04 211.55-14.67 213.02-16.31 214.97-17.68L214.97-17.68Q219.07-20.61 223.56-21.48L223.56-21.48Q225.13-21.83 226.18-21.83 227.23-21.83 227.91-21.8 228.59-21.78 229.33-21.7 230.06-21.63 230.6-21.34L230.6-21.34Q231.86-20.7 231.86-18.85L231.86-18.85Q231.86-17.68 230.2-16.55L230.2-16.55Q229.77-16.26 229.42-16.02L229.42-16.02Q229.18-17.14 228.79-17.92 228.4-18.7 227.08-18.7L227.08-18.7Q221.32-17.48 217.17-15.04L217.17-15.04Q212.48-12.26 212.48-9.18L212.48-9.18Q212.48-8.84 212.53-8.45L212.53-8.45Q212.53-5.32 214.92-4L214.92-4Q216.73-3.03 219.58-3.03 222.44-3.03 224.54-3.69 226.64-4.35 228.62-5.15ZM241.73-9.28L241.73-9.28Q241.73-15.04 246.71-18.55L246.71-18.55Q250.66-21.34 256.23-21.92L256.23-21.92Q256.52-21.92 257.59-21.92 258.67-21.92 260.48-21.29L260.48-21.29Q264.48-19.92 265.94-16.46L265.94-16.46Q266.53-15.09 266.53-14.14 266.53-13.18 266.48-12.79L266.48-12.79Q266.48-6.69 261.84-3.17L261.84-3.17Q257.55 0.05 251.1 0.05L251.1 0.05Q246.46 0.05 244.09-2.1 241.73-4.25 241.73-9.28ZM245.09-8.11L245.09-8.11Q245.09-5.08 246.71-4L246.71-4Q247.93-3.22 250.81-3.22 253.69-3.22 255.89-3.66 258.08-4.1 259.79-5.18L259.79-5.18Q263.45-7.52 263.45-12.45L263.45-12.45Q263.45-15.38 261.89-17.24L261.89-17.24Q260.18-19.24 257.4-19.24L257.4-19.24Q255.5-18.9 253.57-18.51 251.64-18.12 249.93-16.99L249.93-16.99Q246.22-14.6 245.09-8.11ZM287.62-7.71L287.67-10.69Q287.67-16.5 287.04-19.24L287.04-19.24Q287.43-19.97 285.86-19.97L285.86-19.97Q284.2-19.97 281.57-19.14 278.93-18.31 277.27-17.48L277.27-17.48Q273.31-15.58 272.88-13.77L272.88-13.77 272.88-0.49 269.6-0.49Q268.97-2.15 268.97-9.81L268.97-9.81Q268.97-16.65 269.24-19.87 269.51-23.1 269.65-23.54L269.65-23.54Q270.92-24.37 271.7-24.37L271.7-24.37Q272.92-24.37 272.92-21.48L272.92-21.48Q272.92-20.36 272.8-19.31 272.68-18.26 272.68-17.87L272.68-17.87Q280.59-23.68 284.94-23.68L284.94-23.68Q289.87-23.68 290.55-15.72L290.55-15.72Q290.84-12.94 290.84-8.01L290.84-8.01 290.8-4.15Q290.8-2 290.89 0L290.89 0Q290.4 0.29 290.11 0.29L290.11 0.29Q289.97 0.24 289.48 0.15 288.99 0.05 288.21 0L288.21 0Q287.72-1.95 287.67-3.98 287.62-6.01 287.62-7.71L287.62-7.71ZM312.62-7.71L312.67-10.69Q312.67-16.5 312.03-19.24L312.03-19.24Q312.42-19.97 310.86-19.97L310.86-19.97Q309.2-19.97 306.56-19.14 303.93-18.31 302.27-17.48L302.27-17.48Q298.31-15.58 297.87-13.77L297.87-13.77 297.87-0.49 294.6-0.49Q293.97-2.15 293.97-9.81L293.97-9.81Q293.97-16.65 294.24-19.87 294.5-23.1 294.65-23.54L294.65-23.54Q295.92-24.37 296.7-24.37L296.7-24.37Q297.92-24.37 297.92-21.48L297.92-21.48Q297.92-20.36 297.8-19.31 297.68-18.26 297.68-17.87L297.68-17.87Q305.59-23.68 309.93-23.68L309.93-23.68Q314.87-23.68 315.55-15.72L315.55-15.72Q315.84-12.94 315.84-8.01L315.84-8.01 315.79-4.15Q315.79-2 315.89 0L315.89 0Q315.4 0.29 315.11 0.29L315.11 0.29Q314.96 0.24 314.47 0.15 313.99 0.05 313.2 0L313.2 0Q312.72-1.95 312.67-3.98 312.62-6.01 312.62-7.71L312.62-7.71ZM328.58-3.42L328.58-3.42Q332.88-3.42 341.52-7.32L341.52-7.32Q342.06-7.32 342.4-6.96 342.74-6.59 342.74-6.1L342.74-6.1Q340.79-2.78 335.27-0.93 329.76 0.93 324.97-0.29L324.97-0.29Q319.55-1.71 318.38-6.4L318.38-6.4Q318.28-7.32 318.28-8.89 318.28-10.45 319.09-13.01 319.89-15.58 321.85-17.87 323.8-20.17 326.43-21.48 329.07-22.8 332.05-22.8L332.05-22.8Q334.88-22.8 338.4-20.85L338.4-20.85Q340.06-19.92 341.03-18.75 342.01-17.58 342.01-16.36L342.01-16.36Q342.01-16.02 341.96-15.67L341.96-15.67Q341.86-12.7 339.08-11.91L339.08-11.91Q337.86-11.57 336.25-11.57L336.25-11.57 329.22-11.87Q325.7-11.87 323.85-10.35L323.85-10.35Q322.77-9.52 322.33-7.86L322.33-7.86Q323.55-3.42 328.58-3.42ZM337.3-18.51Q336.2-19.29 335.03-19.63 333.86-19.97 333.08-19.97 332.29-19.97 330.54-19.46 328.78-18.95 327.41-18.31L327.41-18.31Q324.04-16.75 324.04-15.04L324.04-15.04Q327.95-14.7 329.9-14.7L329.9-14.7Q335.32-14.7 337.23-15.63L337.23-15.63Q338.4-16.11 338.4-16.85L338.4-16.85Q338.4-17.72 337.3-18.51ZM365.42-5.15Q367.4-5.96 369.3-6.64 371.21-7.32 372.94-7.32 374.67-7.32 374.67-6.25L374.67-6.25Q374.67-6.01 374.55-5.49 374.43-4.98 373.23-4.27 372.04-3.56 370.3-2.93 368.57-2.29 366.52-1.76 364.47-1.22 362.52-0.83L362.52-0.83Q358.46 0 356.75 0 355.05 0 353.07-0.39 351.09-0.78 349.38-1.66L349.38-1.66Q345.43-3.71 345.43-7.71L345.43-7.71Q345.43-8.01 345.43-8.89 345.43-9.77 346.16-11.4 346.89-13.04 348.36-14.67 349.82-16.31 351.77-17.68L351.77-17.68Q355.88-20.61 360.37-21.48L360.37-21.48Q361.93-21.83 362.98-21.83 364.03-21.83 364.71-21.8 365.4-21.78 366.13-21.7 366.86-21.63 367.4-21.34L367.4-21.34Q368.67-20.7 368.67-18.85L368.67-18.85Q368.67-17.68 367.01-16.55L367.01-16.55Q366.57-16.26 366.23-16.02L366.23-16.02Q365.98-17.14 365.59-17.92 365.2-18.7 363.88-18.7L363.88-18.7Q358.12-17.48 353.97-15.04L353.97-15.04Q349.28-12.26 349.28-9.18L349.28-9.18Q349.28-8.84 349.33-8.45L349.33-8.45Q349.33-5.32 351.73-4L351.73-4Q353.53-3.03 356.39-3.03 359.24-3.03 361.34-3.69 363.44-4.35 365.42-5.15ZM384.68-4.69L384.68-4.69 384.78-12.5Q384.78-14.36 384.44-15.67L384.44-15.67 376.87-15.67 376.77-19.04 384.1-19.04 384.1-31.64Q384.24-32.08 384.68-32.52L384.68-32.52Q385.37-33.2 385.83-33.2 386.29-33.2 386.63-33.11 386.98-33.01 387.37-32.42L387.37-32.42Q388.15-29.2 388.15-22.71L388.15-22.71Q388.15-21.09 388.3-19.53L388.3-19.53Q389.86-19.73 391.42-19.73L391.42-19.73Q391.42-19.73 393.96-19.73L393.96-19.73Q394.89-19.73 395.67-19.82L395.67-19.82 395.52-16.31 388.39-16.5 388.64 0.34Q387.76 0.73 387.12 0.73L387.12 0.73Q384.68 0.73 384.68-4.69Z" opacity="1" transform="matrix(1,0,0,1,0,0)" fill="#ffffff" class="wordmark-text-0" data-fill-palette-color="quaternary" id="text-0"></path></svg></g></svg></g></svg></g></svg></g><g transform="matrix(1,0,0,1,171.95077151162,0)"><svg viewBox="0 0 51.61845697675998 71.28724878063846" height="71.28724878063846" width="51.61845697675998"><g><svg xmlns="http://www.w3.org/2000/svg" xmlns:xlink="http://www.w3.org/1999/xlink" version="1.1" x="0" y="0" viewBox="15.666 2.5839999999999996 68.667 94.832" enable-background="new 0 0 100 100" xml:space="preserve" height="71.28724878063846" width="51.61845697675998" class="icon-icon-0" data-fill-palette-color="accent" id="icon-0"><path d="M76.834 29.766c-2.035 0-3.879 0.813-5.23 2.129H55.407V15.363c1.345-1.355 2.176-3.219 2.176-5.279 0-4.143-3.357-7.5-7.5-7.5s-7.5 3.357-7.5 7.5c0 1.971 0.767 3.76 2.01 5.098v16.713H28.396c-1.352-1.316-3.195-2.129-5.23-2.129-4.143 0-7.5 3.357-7.5 7.5s3.357 7.5 7.5 7.5c1.996 0 3.806-0.785 5.149-2.057h16.277v38.707H34.167v8h-7v8h45.666v-8h-7v-8H55.407V42.709h16.277c1.344 1.271 3.153 2.057 5.149 2.057 4.143 0 7.5-3.357 7.5-7.5S80.977 29.766 76.834 29.766z" fill="#000000" data-fill-palette-color="accent"></path></svg></g></svg></g><g></g></svg></g><defs></defs></svg><rect width="395.52" height="154.5425361015999" fill="none" stroke="none" visibility="hidden"></rect></g></svg></g></svg>